<svg xmlns="http://www.w3.org/2000/svg" width="130" height="130" viewBox="0 0 130 130">
  <g id="Group_6193" data-name="Group 6193" transform="translate(-1438 -513)">
    <g id="Ellipse_31" data-name="Ellipse 31" transform="translate(1438 513)" fill="#fff" stroke="#4ebdef" stroke-width="2">
      <circle cx="65" cy="65" r="65" stroke="none"/>
      <circle cx="65" cy="65" r="64" fill="none"/>
    </g>
    <g id="Group_5642" data-name="Group 5642" transform="translate(1210.714 -376.559)">
      <g id="canmeds-diagram" transform="translate(245 914)">
        <g id="Group_4290" data-name="Group 4290" transform="translate(1.943 1.795)">
          <path id="Path_890" data-name="Path 890" d="M31.194,33.994s2.459-.062,6.468.269a42.451,42.451,0,0,1,9.816,2.356s-2.5-.744-4.918-1.219a53.205,53.205,0,0,0-9.588-.827,41.224,41.224,0,0,0-10.911,1.715c-3.678,1.116-6.365,2.066-9.609,5.331-4.154,4.174-3.389,8.038-1.013,11.51,1.3,1.922,5.476,4.774,9.609,6.158a33.273,33.273,0,0,0,9.382,1.984h.31s.558-1.013,3.141-4.918a45.848,45.848,0,0,1,7.067-7.77s-1.8,1.674-3.389,3.534A50.271,50.271,0,0,0,31.98,60.4a36.467,36.467,0,0,0-3.389,9.01,24.418,24.418,0,0,0-.31,11.717,8.085,8.085,0,0,0,8.555,6.489c2.418-.186,6.344-1.3,10.766-5.414a37.407,37.407,0,0,0,6.055-6.675l.062-.083a35.8,35.8,0,0,1-3.058-5.414,57.887,57.887,0,0,1-3.513-9.981s1.364,3.968,2.17,6.282a38.437,38.437,0,0,0,4.773,8.493,48.646,48.646,0,0,0,6.489,7.212,23.3,23.3,0,0,0,8.948,5.125,8.16,8.16,0,0,0,10.229-5.311c.785-2.17,1.405-5.207.455-10.332a40.735,40.735,0,0,0-3.12-9.671l-.021-.041a41.533,41.533,0,0,1-5.269-.186,57.618,57.618,0,0,1-10.436-1.963s2.728.7,5.145,1.075a54.169,54.169,0,0,0,10.25.393A37.546,37.546,0,0,0,87.112,59.06c3.554-1.261,5.972-2.232,9.154-5.683a8.148,8.148,0,0,0,.7-10.064c-1.3-1.922-3.389-3.988-8.72-6.117A39.059,39.059,0,0,0,78.02,34.738l-.041.062a35.548,35.548,0,0,1-3.038,5.083A55.966,55.966,0,0,1,68.08,47.86s2.17-2.459,3.761-4.319a56.362,56.362,0,0,0,5.352-8.6,39.377,39.377,0,0,0,3.244-9.34,20.252,20.252,0,0,0-.1-11.2c-1.116-3.968-4.546-6.055-8.741-5.745-2.314.165-4.608.579-9.444,4.484a36.348,36.348,0,0,0-7.522,8.369l.021.021a31.316,31.316,0,0,1,2.645,4.815A49.1,49.1,0,0,1,60.579,36.6s-.558-2.273-1.364-4.588a48.176,48.176,0,0,0-4.36-8.824,42.171,42.171,0,0,0-6.633-8.142c-3.141-2.831-5.414-4.67-9.547-5.931-4.174-1.281-8.183-.062-10.022,3.72-1.013,2.087-2,5.662-1.054,11.8a24.989,24.989,0,0,0,3.12,9.382" transform="translate(-9.496 -8.622)" fill="#fff"/>
        </g>
        <path id="Path_891" data-name="Path 891" d="M134.56,94.469a39.279,39.279,0,0,1,1.281-4.773,42.522,42.522,0,0,1,4.629-9.2l.041.041a49.018,49.018,0,0,1,4.567,9.092,32.444,32.444,0,0,1,1.343,4.567s4.588-1.24,7.377-1.612a54.635,54.635,0,0,1,8.431-.289,29.16,29.16,0,0,1-4.36,7.5,50.392,50.392,0,0,1-5,5.393,33.719,33.719,0,0,1,4.67,5,43.479,43.479,0,0,1,4.3,7.15,31.422,31.422,0,0,1-8.142-.062,63.758,63.758,0,0,1-6.7-1.405,19.944,19.944,0,0,1-1.694,5.7c-1.447,3.265-4.773,8.968-4.773,8.968a65.615,65.615,0,0,1-4.257-7.5,63.172,63.172,0,0,1-2.252-7.253,28.631,28.631,0,0,1-6.427,1.55,82.678,82.678,0,0,1-8.431.227,44.071,44.071,0,0,1,4.422-7.212c2.046-2.376,4.5-5.021,4.5-5.021s-3.41-3.41-5.621-6.158a37.769,37.769,0,0,1-4.071-6.8,51.087,51.087,0,0,1,7.853.124A59.325,59.325,0,0,1,134.56,94.469Z" transform="translate(-93.953 -63.852)" fill="rgba(15,155,217,0.34)"/>
        <path id="Path_892" data-name="Path 892" d="M171.827,147.307a19.816,19.816,0,0,1,3,1.075,22.516,22.516,0,0,1,2.893,1.715s1.612-1.013,2.666-1.55,3.327-1.447,3.327-1.447a15.734,15.734,0,0,1,.579,3.1c.1,1.55,0,3.947,0,3.947a23.669,23.669,0,0,1,3.182,1.9c1.674,1.2,2.707,2.066,2.707,2.066s-1.57,1.488-2.542,2.211a18.444,18.444,0,0,1-2.831,1.633,22.783,22.783,0,0,1,0,2.893c-.1,1.529-.517,3.947-.517,3.947a21.849,21.849,0,0,1-3.265-1.219,26.915,26.915,0,0,1-3.265-1.818,17.137,17.137,0,0,1-2.769,1.529c-1.777.785-3.658,1.447-3.658,1.447a20.393,20.393,0,0,1-.537-3.513c-.1-1.839-.041-3.306-.041-3.306a21.393,21.393,0,0,1-2.955-1.653,18.639,18.639,0,0,1-2.4-2,19.009,19.009,0,0,1,2.686-2.211c1.467-.992,3.12-1.9,3.12-1.9a29.807,29.807,0,0,1,.1-3.41A22.068,22.068,0,0,1,171.827,147.307Z" transform="translate(-131.241 -116.689)" fill="rgba(15,155,217,0.43)"/>
        <path id="Path_893" data-name="Path 893" d="M198.343,161.5s1.157.806,1.694,1.3a20.378,20.378,0,0,1,1.405,1.55s1.033.227,1.777.455c.723.248,1.695.7,1.695.7s-.062.765-.124,1.447a11.94,11.94,0,0,1-.393,1.756,20.72,20.72,0,0,1,.682,2.314c.186.889.351,2.314.351,2.314a15.248,15.248,0,0,1-1.942.806c-.847.248-2.356.558-2.356.558s-.661.723-1.2,1.2c-.537.455-1.55,1.281-1.55,1.281s-.909-.62-1.3-.971-1.529-1.529-1.529-1.529a13.4,13.4,0,0,1-2.17-.517c-.909-.331-1.984-.868-1.984-.868s.207-1.467.393-2.314c.207-.868.62-2.19.62-2.19a12.462,12.462,0,0,1-.372-1.756c-.083-.744-.207-1.529-.207-1.529s1.013-.434,1.694-.661,1.715-.558,1.715-.558a14.1,14.1,0,0,1,1.529-1.632C197.372,162.223,198.343,161.5,198.343,161.5Z" transform="translate(-151.868 -128.114)" fill="#0f9bd9"/>
        <path id="Path_894" data-name="Path 894" d="M22.248,27.185A36.9,36.9,0,0,1,18.8,16.212c-.579-5.352-.434-8.7,1.24-11.841A8.3,8.3,0,0,1,28.882.053c3.72.6,8.8,3.575,12.3,7.15a62.887,62.887,0,0,1,5.476,6.53l.062.083s4.36-6.323,8.72-9.506S62.275.094,65.458-.009c3.637-.124,6.778,1.447,8.121,4.691a21.952,21.952,0,0,1,.455,14.258,67.03,67.03,0,0,1-3.12,8.2l.062.021s7.047.682,11.965,2.872c4.918,2.17,7.067,3.782,8.741,6.489a8.223,8.223,0,0,1-.434,9.568A21.561,21.561,0,0,1,79.737,53.2,56.588,56.588,0,0,1,70.665,54.9h0a44.024,44.024,0,0,1,3.8,11.283c.744,5.125.641,8.534-.847,11.345-1.715,3.224-3.782,5.559-9.134,4.9-3.74-.455-8.183-3.058-11.82-6.489A58.752,58.752,0,0,1,46.715,69.3l-.331.517a43.226,43.226,0,0,1-7.067,7.646c-4.3,3.513-8.121,5-11.3,5.1a8.225,8.225,0,0,1-7.956-5.435c-1.343-3.513-1.488-9.361-.145-14.176a51.24,51.24,0,0,1,2.872-7.77l.083-.145a46.262,46.262,0,0,1-11.262-2.4C6.585,50.681,3.816,48.759,2,46.155c-2.025-2.872-2.976-6.406-.062-10.167,2.542-3.265,6.551-5.848,12.626-7.481a45.161,45.161,0,0,1,7.4-1.323Zm1.488-.083s2.459-.062,6.468.269a42.451,42.451,0,0,1,9.816,2.356s-2.5-.744-4.918-1.219a53.2,53.2,0,0,0-9.588-.827A41.224,41.224,0,0,0,14.6,29.4c-3.678,1.116-6.365,2.066-9.609,5.331C.84,38.9,1.6,42.766,3.981,46.238c1.3,1.922,5.476,4.774,9.609,6.158a33.273,33.273,0,0,0,9.382,1.984h.31s.558-1.013,3.141-4.918a45.848,45.848,0,0,1,7.067-7.77s-1.8,1.674-3.389,3.534a50.271,50.271,0,0,0-5.579,8.286,36.467,36.467,0,0,0-3.389,9.01,24.418,24.418,0,0,0-.31,11.717,8.085,8.085,0,0,0,8.555,6.489c2.418-.186,6.344-1.3,10.766-5.414A37.407,37.407,0,0,0,46.2,68.638l.062-.083A35.8,35.8,0,0,1,43.2,63.141a57.887,57.887,0,0,1-3.513-9.981s1.364,3.968,2.17,6.282a38.437,38.437,0,0,0,4.773,8.493,48.646,48.646,0,0,0,6.489,7.212,23.3,23.3,0,0,0,8.948,5.125A8.16,8.16,0,0,0,72.3,74.961c.785-2.17,1.405-5.207.455-10.332a40.735,40.735,0,0,0-3.12-9.671l-.021-.041a41.531,41.531,0,0,1-5.269-.186,57.619,57.619,0,0,1-10.436-1.963s2.728.7,5.145,1.075a54.17,54.17,0,0,0,10.25.393,37.546,37.546,0,0,0,10.353-2.066c3.554-1.261,5.972-2.232,9.154-5.683a8.148,8.148,0,0,0,.7-10.064c-1.3-1.922-3.389-3.988-8.72-6.117a39.059,39.059,0,0,0-10.229-2.459l-.041.062a35.548,35.548,0,0,1-3.038,5.083,55.966,55.966,0,0,1-6.861,7.976s2.17-2.459,3.761-4.319a56.362,56.362,0,0,0,5.352-8.6,39.377,39.377,0,0,0,3.244-9.34,20.252,20.252,0,0,0-.1-11.2C71.76,3.545,68.33,1.458,64.135,1.768c-2.314.165-4.608.579-9.444,4.484a36.348,36.348,0,0,0-7.522,8.369l.021.021a31.316,31.316,0,0,1,2.645,4.815,49.1,49.1,0,0,1,3.286,10.25s-.558-2.273-1.364-4.588a48.176,48.176,0,0,0-4.36-8.824,42.17,42.17,0,0,0-6.633-8.142c-3.141-2.831-5.414-4.67-9.547-5.931C27.043.941,23.034,2.16,21.194,5.942c-1.013,2.087-2,5.662-1.054,11.8a24.989,24.989,0,0,0,3.12,9.382" transform="translate(-0.095 0.064)" fill="#0f9bd9"/>
      </g>
    </g>
  </g>
</svg>
