<svg xmlns="http://www.w3.org/2000/svg" width="449.623" height="399.887" viewBox="0 0 449.623 399.887">
  <g id="Group_4300" data-name="Group 4300" transform="translate(-245 -914)">
    <g id="canmeds-diagram" transform="translate(244.905 914.063)">
      <g id="Group_4290" data-name="Group 4290">
        <path id="Path_890" data-name="Path 890" d="M114.5,131.4s11.9-.3,31.3,1.3c22.6,1.9,47.5,11.4,47.5,11.4s-12.1-3.6-23.8-5.9c-8.6-1.7-29.9-4.4-46.4-4a199.491,199.491,0,0,0-52.8,8.3c-17.8,5.4-30.8,10-46.5,25.8C3.7,188.5,7.4,207.2,18.9,224c6.3,9.3,26.5,23.1,46.5,29.8,28.9,9.6,45.4,9.6,45.4,9.6h1.5s2.7-4.9,15.2-23.8S161.7,202,161.7,202s-8.7,8.1-16.4,17.1c-5.7,6.6-19.8,25.6-27,40.1s-12.2,25.4-16.4,43.6-6.4,34.9-1.5,56.7c5,21.8,23.4,32.7,41.4,31.4,11.7-.9,30.7-6.3,52.1-26.2,22-20.4,29.3-32.3,29.3-32.3l.3-.4s-4.7-5.9-14.8-26.2-17-48.3-17-48.3,6.6,19.2,10.5,30.4c2.9,8.3,13.2,28.4,23.1,41.1,9.8,12.6,17.4,22.3,31.4,34.9,10.5,9.5,23.2,18.3,43.3,24.8,18.7,6.1,41.1-2.6,49.5-25.7,3.8-10.5,6.8-25.2,2.2-50a197.126,197.126,0,0,0-15.1-46.8l-.1-.2s-2.8.5-25.5-.9-50.5-9.5-50.5-9.5,13.2,3.4,24.9,5.2a262.139,262.139,0,0,0,49.6,1.9,181.693,181.693,0,0,0,50.1-10c17.2-6.1,28.9-10.8,44.3-27.5a39.428,39.428,0,0,0,3.4-48.7c-6.3-9.3-16.4-19.3-42.2-29.6A189.016,189.016,0,0,0,341.1,135l-.2.3s-2.2,5.7-14.7,24.6S293,198.5,293,198.5s10.5-11.9,18.2-20.9c5.7-6.6,18.7-27.1,25.9-41.6s11.5-27.1,15.7-45.2c4.2-18.2,5.5-32.7-.5-54.2-5.4-19.2-22-29.3-42.3-27.8-11.2.8-22.3,2.8-45.7,21.7C240.5,50,227.9,71,227.9,71l.1.1s2.7,3,12.8,23.3S256.7,144,256.7,144s-2.7-11-6.6-22.2c-2.9-8.3-12.1-29.3-21.1-42.7s-18.7-27.3-32.1-39.4C181.7,26,170.7,17.1,150.7,11c-20.2-6.2-39.6-.3-48.5,18-4.9,10.1-9.7,27.4-5.1,57.1s15.1,45.4,15.1,45.4" fill="#fff" />
      </g>
      <path id="Path_891" data-name="Path 891" d="M196.6,148.1a190.092,190.092,0,0,1,6.2-23.1c7.2-22.2,22.4-44.5,22.4-44.5l.2.2s14.4,22,22.1,44c5.4,15.5,6.5,22.1,6.5,22.1s22.2-6,35.7-7.8c19.1-2.5,40.8-1.4,40.8-1.4a141.109,141.109,0,0,1-21.1,36.3c-14.1,17.2-24.2,26.1-24.2,26.1a163.175,163.175,0,0,1,22.6,24.2c12,15.6,20.8,34.6,20.8,34.6s-20,2.8-39.4-.3a308.541,308.541,0,0,1-32.4-6.8s-1.1,11.8-8.2,27.6c-7,15.8-23.1,43.4-23.1,43.4s-14.9-22.8-20.6-36.3c-5.6-13.5-10.9-35.1-10.9-35.1a138.55,138.55,0,0,1-31.1,7.5c-16,1.7-40.8,1.1-40.8,1.1s11.5-23.4,21.4-34.9,21.8-24.3,21.8-24.3-16.5-16.5-27.2-29.8c-10.7-13.2-19.7-32.9-19.7-32.9s21.1-1.4,38,.6C173.5,140.8,196.6,148.1,196.6,148.1Z" fill="rgba(15,155,217,0.34)" />
      <path id="Path_892" data-name="Path 892" d="M196.5,148.1a95.9,95.9,0,0,1,14.5,5.2,108.956,108.956,0,0,1,14,8.3s7.8-4.9,12.9-7.5,16.1-7,16.1-7a76.136,76.136,0,0,1,2.8,15c.5,7.5,0,19.1,0,19.1a114.537,114.537,0,0,1,15.4,9.2c8.1,5.8,13.1,10,13.1,10s-7.6,7.2-12.3,10.7a89.259,89.259,0,0,1-13.7,7.9,110.26,110.26,0,0,1,0,14c-.5,7.4-2.5,19.1-2.5,19.1a105.728,105.728,0,0,1-15.8-5.9,130.254,130.254,0,0,1-15.8-8.8,82.927,82.927,0,0,1-13.4,7.4c-8.6,3.8-17.7,7-17.7,7a98.684,98.684,0,0,1-2.6-17c-.5-8.9-.2-16-.2-16a103.518,103.518,0,0,1-14.3-8,90.206,90.206,0,0,1-11.6-9.7,91.991,91.991,0,0,1,13-10.7c7.1-4.8,15.1-9.2,15.1-9.2a144.232,144.232,0,0,1,.5-16.5A106.787,106.787,0,0,1,196.5,148.1Z" fill="rgba(15,155,217,0.43)" />
      <path id="Path_893" data-name="Path 893" d="M225,161.5s5.6,3.9,8.2,6.3a98.641,98.641,0,0,1,6.8,7.5s5,1.1,8.6,2.2c3.5,1.2,8.2,3.4,8.2,3.4s-.3,3.7-.6,7a57.777,57.777,0,0,1-1.9,8.5,100.286,100.286,0,0,1,3.3,11.2c.9,4.3,1.7,11.2,1.7,11.2a73.8,73.8,0,0,1-9.4,3.9c-4.1,1.2-11.4,2.7-11.4,2.7s-3.2,3.5-5.8,5.8c-2.6,2.2-7.5,6.2-7.5,6.2s-4.4-3-6.3-4.7-7.4-7.4-7.4-7.4a64.843,64.843,0,0,1-10.5-2.5c-4.4-1.6-9.6-4.2-9.6-4.2s1-7.1,1.9-11.2c1-4.2,3-10.6,3-10.6a60.3,60.3,0,0,1-1.8-8.5c-.4-3.6-1-7.4-1-7.4s4.9-2.1,8.2-3.2S210,175,210,175s4.6-5.7,7.4-7.9C220.3,165,225,161.5,225,161.5Z" fill="#0f9bd9" />
      <path id="Path_894" data-name="Path 894" d="M107.3,131.8S93.4,104.7,90.6,78.7c-2.8-25.9-2.1-42.1,6-57.3,8.8-16.6,26-23.6,42.8-20.9,18,2.9,42.6,17.3,59.5,34.6a304.326,304.326,0,0,1,26.5,31.6l.3.4s21.1-30.6,42.2-46S301,.7,316.4.2c17.6-.6,32.8,7,39.3,22.7,8.6,21,8.9,45.7,2.2,69-5.4,18.8-15.1,39.7-15.1,39.7l.3.1s34.1,3.3,57.9,13.9c23.8,10.5,34.2,18.3,42.3,31.4,9.3,14.9,8.4,32.9-2.1,46.3-11.6,14.9-32.2,28.6-55.7,34.4-30.6,7.5-43.9,8.2-43.9,8.2h0s14.6,28.8,18.4,54.6c3.6,24.8,3.1,41.3-4.1,54.9-8.3,15.6-18.3,26.9-44.2,23.7-18.1-2.2-39.6-14.8-57.2-31.4a284.313,284.313,0,0,1-28.8-32.1l-1.6,2.5s-14.9,21.3-34.2,37c-20.8,17-39.3,24.2-54.7,24.7-17.6.6-32.4-10.4-38.5-26.3-6.5-17-7.2-45.3-.7-68.6a247.961,247.961,0,0,1,13.9-37.6l.4-.7S79.8,264.3,55.8,255c-24.3-9.5-37.7-18.8-46.5-31.4-9.8-13.9-14.4-31-.3-49.2,12.3-15.8,31.7-28.3,61.1-36.2a218.545,218.545,0,0,1,35.8-6.4Zm7.2-.4s11.9-.3,31.3,1.3c22.6,1.9,47.5,11.4,47.5,11.4s-12.1-3.6-23.8-5.9c-8.6-1.7-29.9-4.4-46.4-4a199.491,199.491,0,0,0-52.8,8.3c-17.8,5.4-30.8,10-46.5,25.8C3.7,188.5,7.4,207.2,18.9,224c6.3,9.3,26.5,23.1,46.5,29.8,28.9,9.6,45.4,9.6,45.4,9.6h1.5s2.7-4.9,15.2-23.8S161.7,202,161.7,202s-8.7,8.1-16.4,17.1c-5.7,6.6-19.8,25.6-27,40.1s-12.2,25.4-16.4,43.6-6.4,34.9-1.5,56.7c5,21.8,23.4,32.7,41.4,31.4,11.7-.9,30.7-6.3,52.1-26.2,22-20.4,29.3-32.3,29.3-32.3l.3-.4s-4.7-5.9-14.8-26.2-17-48.3-17-48.3,6.6,19.2,10.5,30.4c2.9,8.3,13.2,28.4,23.1,41.1,9.8,12.6,17.4,22.3,31.4,34.9,10.5,9.5,23.2,18.3,43.3,24.8,18.7,6.1,41.1-2.6,49.5-25.7,3.8-10.5,6.8-25.2,2.2-50a197.126,197.126,0,0,0-15.1-46.8l-.1-.2s-2.8.5-25.5-.9-50.5-9.5-50.5-9.5,13.2,3.4,24.9,5.2a262.139,262.139,0,0,0,49.6,1.9,181.693,181.693,0,0,0,50.1-10c17.2-6.1,28.9-10.8,44.3-27.5a39.428,39.428,0,0,0,3.4-48.7c-6.3-9.3-16.4-19.3-42.2-29.6A189.016,189.016,0,0,0,341.1,135l-.2.3s-2.2,5.7-14.7,24.6S293,198.5,293,198.5s10.5-11.9,18.2-20.9c5.7-6.6,18.7-27.1,25.9-41.6s11.5-27.1,15.7-45.2c4.2-18.2,5.5-32.7-.5-54.2-5.4-19.2-22-29.3-42.3-27.8-11.2.8-22.3,2.8-45.7,21.7C240.5,50,227.9,71,227.9,71l.1.1s2.7,3,12.8,23.3S256.7,144,256.7,144s-2.7-11-6.6-22.2c-2.9-8.3-12.1-29.3-21.1-42.7s-18.7-27.3-32.1-39.4C181.7,26,170.7,17.1,150.7,11c-20.2-6.2-39.6-.3-48.5,18-4.9,10.1-9.7,27.4-5.1,57.1s15.1,45.4,15.1,45.4" fill="#0f9bd9" />
    </g>
    <text id="Ammatillisuus" transform="translate(399 988)" fill="#222" font-size="13" font-family="Montserrat-Medium, Montserrat" font-weight="500">
      <tspan x="-47.645" y="0">Ammatillisuus</tspan>
    </text>
    <text id="Vuorovaikutus-_taidot" data-name="Vuorovaikutus-
taidot" transform="translate(541 988)" fill="#222" font-size="13" font-family="Montserrat-Medium, Montserrat" font-weight="500">
      <tspan x="-49.965" y="0">Vuorovaikutus-</tspan>
      <tspan x="-19.643" y="15">taidot</tspan>
    </text>
    <text id="Terveyden_ja_hyvinvoinnin_edistäminen" data-name="Terveyden ja 
hyvinvoinnin
edistäminen" transform="translate(400 1227)" fill="#222" font-size="13" font-family="Montserrat-Medium, Montserrat" font-weight="500">
      <tspan x="-43.251" y="0">Terveyden ja </tspan>
      <tspan x="-42.322" y="15">hyvinvoinnin</tspan>
      <tspan x="-41.594" y="30">edistäminen</tspan>
    </text>
    <text id="Johtamistaidot" transform="translate(538 1242)" fill="#222" font-size="13" font-family="Montserrat-Medium, Montserrat" font-weight="500">
      <tspan x="-50.05" y="0">Johtamistaidot</tspan>
    </text>
    <text id="Yhteistyötaidot" transform="translate(612 1117)" fill="#222" font-size="13" font-family="Montserrat-Medium, Montserrat" font-weight="500">
      <tspan x="-50.186" y="0">Yhteistyötaidot</tspan>
    </text>
    <text id="Oma_osaaminen_ja_tiedonhallinta" data-name="Oma 
osaaminen ja
tiedonhallinta" transform="translate(327 1102)" fill="#222" font-size="13" font-family="Montserrat-Medium, Montserrat" font-weight="500">
      <tspan x="-17.966" y="0">Oma </tspan>
      <tspan x="-44.174" y="15">osaaminen ja</tspan>
      <tspan x="-46.228" y="30">tiedonhallinta</tspan>
    </text>
    <text id="Lääke-_tieteellinen_osaaminen" data-name="Lääke-
tieteellinen
osaaminen" transform="translate(470 1103)" fill="#fff" font-size="10" font-family="Montserrat-Medium, Montserrat" font-weight="500">
      <tspan x="-16.96" y="0">Lääke-</tspan>
      <tspan x="-28.695" y="13">tieteellinen</tspan>
      <tspan x="-28.225" y="26">osaaminen</tspan>
    </text>
  </g>
</svg>
