<svg xmlns="http://www.w3.org/2000/svg" width="182" height="56.51" viewBox="0 0 182 56.51">
  <g id="Group_4951" data-name="Group 4951" transform="translate(-976 -865)">
    <rect id="Rectangle_4598" data-name="Rectangle 4598" width="182" height="56.51" transform="translate(976 865)" fill="#fff"/>
    <g id="Layer_1" transform="translate(1609.997 869)">
      <path id="path2922" d="M69.551,32.09C67.691,28,63.514,27.4,60.9,25.7a5.4,5.4,0,0,1-1.957-3.824,3.655,3.655,0,0,1-4.262-2.344c-.77-1.958-.451-5.2-3.029-7.954a9.644,9.644,0,0,0-7.874-3.139c3.243,2.169,1.964,5.437-.391,5.437-3.278,0-4.194-3.947-8.992-3.947a5,5,0,0,0-2.668.742c2.687.339,3.33,2.543,4.17,4.536A5.05,5.05,0,0,0,39.5,18.2a4.572,4.572,0,0,1-2.045.4c-2.12,0-3.6-1.115-5.113-2.678-1.335-1.376-2.825-2.68-5.322-2.68a4.938,4.938,0,0,0-2.5.609c1.372.216,3.4,1.033,3.4,2.483,0,1.24-1.371,1.715-2.5.528a7,7,0,0,0-5.018-2.321A3.824,3.824,0,0,0,18,15.268c2.382.275,3.794,1.8,5.269,5.216.832,1.926,2.018,3.746,5,3.779,1.359.016,3.288-.63,4.42.457,1.072,1.029.712,2.378,1.2,3.471.617,1.375,1.9,2.084,4.4,2.214-2.074,1.735-7.033.695-8.721-1.079.223,4.44,3.725,8.423,10.677,6.55,1.208-.325,2.07-.141,2.535,1.081.639,1.678,2.15,1.957,3.579,1.78,3.267-.405,5.207.253,7.088,2.5.411-3.718-2.247-5.9-3.916-6.946a3.117,3.117,0,0,1-1.765-2.83,6.549,6.549,0,0,0,4.211,2.094c2.7.379,4.63,1.132,5.652,2.578.3-4.087-3.992-5.01-4.518-6.729A5.45,5.45,0,0,0,56.865,30.5c1.875-.142,4.155-1.615,5.837,1.268a6.457,6.457,0,0,1,6.848.324M46.193,26.579H41.361V21.746h4.832ZM41.361,4.832h4.832V0H41.361Zm4.832,38.661H41.361v4.832h4.832Z" transform="translate(-652)"/>
      <path id="path2924" d="M11.9,188.763c1.725,0,2.853-.989,2.853-3.045v-4.524H13.219v4.6c0,1.033-.5,1.545-1.3,1.545s-1.3-.522-1.3-1.576v-4.567H9.076v4.556c0,2.013,1.107,3.013,2.822,3.013m3.822-.116h1.51v-4.5l2.951,4.5H21.5v-7.453H19.99v4.342l-2.855-4.342H15.72Zm6.911,0h1.543v-7.453H22.631v7.453Zm4.528.041h1.426l2.512-7.494H29.47l-1.576,5.131-1.576-5.131H24.647Zm4.332-.041h4.844v-1.394H33.022v-1.661H35.9V184.2H33.022v-1.611h3.269v-1.391h-4.8Zm5.7,0h1.543V186.2H39.7l1.375,2.45h1.766l-1.585-2.77a2.246,2.246,0,0,0,1.382-2.2v-.043a2.359,2.359,0,0,0-.627-1.725,2.771,2.771,0,0,0-2.024-.713h-2.8Zm1.543-3.812v-2.248h1.108c.788,0,1.246.374,1.246,1.12v.011a1.075,1.075,0,0,1-1.215,1.118H38.733Zm6.965,3.906a2.25,2.25,0,0,0,2.5-2.235v-.022c0-1.161-.7-1.713-2-2.226-1.162-.478-1.418-.681-1.418-1.106v-.01c0-.385.331-.651.864-.651a2.617,2.617,0,0,1,1.587.693l.861-1.17a3.541,3.541,0,0,0-2.406-.915,2.211,2.211,0,0,0-2.437,2.182v.021c0,1.278.818,1.778,2.139,2.291,1.066.4,1.279.638,1.279,1.011v.012c0,.436-.363.734-.959.734a2.863,2.863,0,0,1-1.853-.841l-.915,1.138a3.994,3.994,0,0,0,2.756,1.1m3.08-.094h1.541v-7.453H48.777v7.453Zm3.948,0h1.532V182.62h1.875v-1.425h-5.28v1.425h1.873Zm5.953,0H60.22v-2.962l2.428-4.491h-1.7l-1.48,2.928L58,181.194H56.25l2.428,4.512v2.94Zm9.25.127c1.97,0,3.374-1.575,3.374-3.8v-.128c0-2.226-1.383-3.78-3.364-3.78s-3.374,1.563-3.374,3.8v.128c0,2.225,1.384,3.78,3.365,3.78m.01-1.426c-1.033,0-1.789-.927-1.789-2.4v-.074c0-1.47.734-2.386,1.78-2.386s1.778.928,1.778,2.4v.072c0,1.471-.736,2.386-1.769,2.386m3.987,1.3h1.542v-2.952h2.865v-1.413H73.467v-1.673h3.258v-1.415h-4.8Zm7.8,0h1.543v-3.036h2.45v3.036h1.543v-7.453H83.721v2.992h-2.45v-2.992H79.728Zm6.64,0h4.844v-1.394H87.9v-1.661h2.874V184.2H87.9v-1.611h3.269v-1.391h-4.8v7.452Zm5.7,0h4.557v-1.416H93.61v-6.036H92.066Zm7.553.094a2.249,2.249,0,0,0,2.5-2.235v-.022c0-1.161-.7-1.713-2-2.226-1.161-.478-1.417-.681-1.417-1.106v-.01c0-.385.33-.651.864-.651a2.614,2.614,0,0,1,1.587.693l.861-1.17a3.544,3.544,0,0,0-2.406-.915,2.211,2.211,0,0,0-2.437,2.182v.021c0,1.278.819,1.778,2.139,2.291,1.066.4,1.279.638,1.279,1.011v.012c0,.436-.363.734-.96.734a2.86,2.86,0,0,1-1.852-.841l-.915,1.138a3.992,3.992,0,0,0,2.757,1.1m3.254-.094h1.543v-7.453h-1.543Zm2.657,0h1.511v-4.5l2.951,4.5h1.319v-7.453H109.8v4.342l-2.854-4.342h-1.415Zm6.886,0h1.541v-2.194l.693-.873,1.864,3.067h1.809l-2.609-4.291,2.5-3.161H116.4l-2.439,3.214v-3.214h-1.541v7.453Zm6.348,0h1.543v-7.453h-1.543Z" transform="translate(-585.26 -149.547)"/>
      <path id="path2926" d="M0,172.375H1.543v-3.034h2.45v3.034H5.536v-7.453H3.993v2.992H1.543v-2.992H0Zm6.64,0h4.844v-1.393H8.172v-1.661h2.875v-1.394H8.172v-1.609h3.269v-1.394H6.64Zm5.7,0H16.9V170.96H13.882v-6.038H12.339Zm7.551.1a2.251,2.251,0,0,0,2.5-2.234v-.021c0-1.161-.7-1.714-2-2.226-1.162-.479-1.418-.681-1.418-1.107v-.01c0-.385.331-.651.864-.651a2.606,2.606,0,0,1,1.587.694l.862-1.172a3.54,3.54,0,0,0-2.406-.914,2.209,2.209,0,0,0-2.437,2.18v.022c0,1.278.819,1.779,2.139,2.29,1.065.4,1.278.638,1.278,1.012v.01c0,.438-.362.735-.959.735a2.852,2.852,0,0,1-1.852-.84l-.915,1.139a4,4,0,0,0,2.756,1.094m3.256-.1h1.543v-7.453H23.146Zm2.657,0h1.51v-4.5l2.951,4.5h1.319v-7.453h-1.51v4.344l-2.854-4.344H25.8Zm10.028.107a4.309,4.309,0,0,0,2.65-.927v-3.449h-2.82v1.341h1.353v1.321a1.886,1.886,0,0,1-1.108.308c-1.1,0-1.938-.862-1.938-2.394v-.087c0-1.374.809-2.342,1.874-2.342a2.109,2.109,0,0,1,1.544.64l.915-1.2a3.582,3.582,0,0,0-5.919,2.918v.1c0,2.333,1.446,3.78,3.449,3.78m3.606-.107H40.98v-2.949h2.863V168.01H40.98v-1.672h3.258v-1.416h-4.8v7.453Zm8.392.129c1.97,0,3.375-1.576,3.375-3.8v-.128c0-2.226-1.383-3.779-3.364-3.779s-3.374,1.564-3.374,3.8v.128c0,2.226,1.383,3.781,3.363,3.781m.011-1.427c-1.033,0-1.789-.926-1.789-2.394v-.075c0-1.47.736-2.387,1.779-2.387s1.779.927,1.779,2.4v.073c0,1.47-.737,2.386-1.769,2.386m4.071,1.3h1.543v-2.448h.969l1.375,2.448h1.765l-1.585-2.767a2.248,2.248,0,0,0,1.384-2.2v-.043a2.355,2.355,0,0,0-.629-1.725,2.763,2.763,0,0,0-2.021-.713h-2.8v7.453Zm1.543-3.811v-2.248h1.107c.789,0,1.246.372,1.246,1.117v.012a1.074,1.074,0,0,1-1.214,1.118H53.454Zm6.88,3.906a2.251,2.251,0,0,0,2.5-2.234v-.021c0-1.161-.7-1.714-2-2.226-1.161-.479-1.418-.681-1.418-1.107v-.01c0-.385.331-.651.864-.651a2.6,2.6,0,0,1,1.587.694l.862-1.172a3.544,3.544,0,0,0-2.407-.914,2.209,2.209,0,0,0-2.437,2.18v.022c0,1.278.819,1.779,2.139,2.29,1.065.4,1.279.638,1.279,1.012v.01c0,.438-.363.735-.959.735a2.852,2.852,0,0,1-1.852-.84l-.915,1.139a4,4,0,0,0,2.756,1.094m8.271.021c1.725,0,2.852-.989,2.852-3.043v-4.527H69.925v4.6c0,1.032-.5,1.543-1.3,1.543s-1.3-.522-1.3-1.576v-4.568H65.783v4.558c0,2.012,1.108,3.011,2.823,3.011m3.822-.117h1.511v-4.5l2.95,4.5h1.32v-7.453H76.7v4.344l-2.854-4.344H72.428Zm6.91,0h1.543v-7.453H79.338Zm4.529.043h1.426l2.511-7.5H86.177L84.6,170.055l-1.575-5.132H81.354Zm4.268-.043h4.844v-1.393H89.667v-1.661h2.875v-1.394H89.667v-1.609h3.268v-1.394h-4.8v7.452Zm5.7,0h1.543v-2.448h.97l1.374,2.448h1.766L97.9,169.608a2.249,2.249,0,0,0,1.383-2.2v-.043a2.363,2.363,0,0,0-.628-1.725,2.769,2.769,0,0,0-2.023-.713h-2.8Zm1.543-3.811v-2.248h1.108c.788,0,1.246.372,1.246,1.117v.012a1.074,1.074,0,0,1-1.214,1.118H95.377Zm6.884,3.906a2.251,2.251,0,0,0,2.5-2.234v-.021c0-1.161-.7-1.714-2-2.226-1.161-.479-1.418-.681-1.418-1.107v-.01c0-.385.33-.651.863-.651a2.606,2.606,0,0,1,1.587.694l.862-1.172a3.541,3.541,0,0,0-2.406-.914,2.209,2.209,0,0,0-2.437,2.18v.022c0,1.278.818,1.779,2.139,2.29,1.066.4,1.278.638,1.278,1.012v.01c0,.438-.361.735-.959.735a2.851,2.851,0,0,1-1.852-.84l-.915,1.139a3.994,3.994,0,0,0,2.755,1.094m3.079-.1h1.543v-7.453h-1.543Zm3.964,0h1.532v-6.027h1.874v-1.426h-5.281v1.426H109.3v6.027Zm3.921,0h4.844v-1.393h-3.312v-1.661h2.876v-1.394h-2.876v-1.609h3.269v-1.394h-4.8v7.452Zm7.074,0h1.532v-6.027H123.7v-1.426h-5.281v1.426H120.3v6.027Z" transform="translate(-576.184 -144.457)"/>
      <path id="path2928" d="M19.479,156.1h1.542V153.07h2.45V156.1h1.543v-7.453H23.471v2.994h-2.45v-2.994H19.479Zm6.639,0h4.844v-1.394H27.651v-1.662h2.874v-1.393H27.651v-1.61H30.92v-1.393h-4.8V156.1Zm5.7,0h4.556V154.69H33.36v-6.038H31.818Zm7.528.1a2.251,2.251,0,0,0,2.5-2.235v-.021c0-1.161-.7-1.713-2-2.226-1.161-.478-1.417-.681-1.417-1.106V150.6c0-.383.329-.649.862-.649a2.61,2.61,0,0,1,1.587.693l.861-1.171a3.544,3.544,0,0,0-2.4-.915,2.21,2.21,0,0,0-2.438,2.182v.022c0,1.278.82,1.778,2.139,2.29,1.066.4,1.279.639,1.279,1.011v.01c0,.438-.362.735-.959.735a2.857,2.857,0,0,1-1.852-.842L36.59,155.1a4,4,0,0,0,2.757,1.1m3.254-.1h1.543v-7.453H42.6Zm2.658,0h1.51v-4.5l2.951,4.5h1.318v-7.453h-1.51V153l-2.855-4.344H45.257V156.1Zm10.029.106a4.317,4.317,0,0,0,2.65-.926v-3.45H55.115v1.342h1.354V154.5a1.884,1.884,0,0,1-1.108.309c-1.1,0-1.938-.863-1.938-2.4v-.086c0-1.372.81-2.342,1.875-2.342a2.114,2.114,0,0,1,1.544.639l.915-1.2a3.482,3.482,0,0,0-2.438-.873,3.518,3.518,0,0,0-3.482,3.79v.1c0,2.331,1.447,3.779,3.449,3.779m3.649-.106h1.542v-7.453H58.935Zm2.657,0H63.1v-4.5l2.951,4.5h1.319v-7.453H65.862V153l-2.855-4.344H61.592Zm10.944,0h1.543v-2.959l2.428-4.494H74.8l-1.48,2.929-1.468-2.929H70.109l2.428,4.514V156.1Zm4.3,0h4.555V154.69H78.373v-6.038H76.832V156.1Zm5.092,0h1.543v-7.453H81.924Zm5.681.128c1.969,0,3.374-1.574,3.374-3.8V152.3c0-2.226-1.382-3.778-3.364-3.778s-3.374,1.565-3.374,3.8v.128c0,2.226,1.383,3.78,3.363,3.78m.01-1.426c-1.032,0-1.789-.927-1.789-2.4v-.074c0-1.471.735-2.386,1.78-2.386s1.78.928,1.78,2.4v.074c0,1.47-.736,2.386-1.77,2.386m3.988,1.3h1.541v-2.268h.875a2.544,2.544,0,0,0,2.788-2.608v-.02a2.452,2.452,0,0,0-2.724-2.557H91.6V156.1Zm1.541-3.651v-2.408h.842a1.116,1.116,0,0,1,1.269,1.2v.011a1.139,1.139,0,0,1-1.246,1.193Zm4.164,3.651h1.543v-7.453H97.309Zm4.7.1a2.252,2.252,0,0,0,2.5-2.235v-.021c0-1.161-.7-1.713-2-2.226-1.162-.478-1.418-.681-1.418-1.106V150.6c0-.383.33-.649.862-.649a2.608,2.608,0,0,1,1.589.693l.861-1.171a3.541,3.541,0,0,0-2.4-.915,2.211,2.211,0,0,0-2.439,2.182v.022c0,1.278.819,1.778,2.14,2.29,1.066.4,1.279.639,1.279,1.011v.01c0,.438-.361.735-.959.735a2.851,2.851,0,0,1-1.852-.842l-.916,1.139a4,4,0,0,0,2.756,1.1m4.425-.1h1.532v-6.027h1.874v-1.426h-5.281v1.426h1.875V156.1Zm6.607.128c1.969,0,3.374-1.574,3.374-3.8V152.3c0-2.226-1.384-3.778-3.364-3.778s-3.374,1.565-3.374,3.8v.128c0,2.226,1.382,3.78,3.363,3.78m.01-1.426c-1.032,0-1.789-.927-1.789-2.4v-.074c0-1.471.735-2.386,1.78-2.386s1.778.928,1.778,2.4v.074c0,1.47-.735,2.386-1.769,2.386" transform="translate(-595.662 -139.366)"/>
    </g>
  </g>
</svg>
