<svg xmlns="http://www.w3.org/2000/svg" width="153" height="56.51" viewBox="0 0 153 56.51">
  <g id="Group_4948" data-name="Group 4948" transform="translate(-457 -865)">
    <rect id="Rectangle_4595" data-name="Rectangle 4595" width="153" height="56.51" transform="translate(457 865)" fill="#fff"/>
    <g id="Group_4910" data-name="Group 4910" transform="translate(-64 -6)">
      <g id="Group_4909" data-name="Group 4909" transform="translate(21199.605 1671.062)">
        <g id="Group_4308" data-name="Group 4308" transform="translate(-20640.949 -780.73)">
          <g id="Group_4307" data-name="Group 4307" transform="translate(0 0)">
            <path id="Path_896" data-name="Path 896" d="M4.918-26.284v-6.728H7.137v-1.441H.969v1.441H3.188v6.728Zm0,0" transform="translate(-0.969 34.453)" fill="#4e008e"/>
          </g>
        </g>
        <g id="Group_4310" data-name="Group 4310" transform="translate(-20634.979 -778.937)">
          <g id="Group_4309" data-name="Group 4309" transform="translate(0 0)">
            <path id="Path_897" data-name="Path 897" d="M6.41-20.515H7.6v-4.164a2.019,2.019,0,0,0-.671-1.663A2.984,2.984,0,0,0,5-26.891a5.086,5.086,0,0,0-2.389.563l.563,1.152a4.466,4.466,0,0,1,1.76-.452.849.849,0,0,1,.971.948v.274l-1.082.033a4.012,4.012,0,0,0-2.1.526,1.65,1.65,0,0,0-.693,1.463,1.982,1.982,0,0,0,.511,1.463,1.948,1.948,0,0,0,1.423.515,2.755,2.755,0,0,0,1.182-.211,2.388,2.388,0,0,0,.889-.748H6.08Zm-.5-2.893v.511a1.189,1.189,0,0,1-.356.908,1.286,1.286,0,0,1-.945.341c-.552,0-.826-.241-.826-.722a.846.846,0,0,1,.363-.748,2.1,2.1,0,0,1,1.1-.267Zm0,0" transform="translate(-2.031 26.891)" fill="#4e008e"/>
          </g>
        </g>
        <g id="Group_4312" data-name="Group 4312" transform="translate(-20627.656 -778.926)">
          <g id="Group_4311" data-name="Group 4311" transform="translate(0 0)">
            <path id="Path_898" data-name="Path 898" d="M9.36-20.479v-3.134a2.591,2.591,0,0,1,.307-1.419,1.074,1.074,0,0,1,.937-.448.807.807,0,0,1,.719.341,1.877,1.877,0,0,1,.222,1.011v3.649h1.708v-4.075a2.4,2.4,0,0,0-.545-1.749,2.2,2.2,0,0,0-1.6-.541A2.414,2.414,0,0,0,10-26.6a1.7,1.7,0,0,0-.745.674H9.108a1.969,1.969,0,0,0-1.9-.915,2.453,2.453,0,0,0-1.089.241,1.755,1.755,0,0,0-.726.674H5.3l-.23-.8h-1.3v6.246h1.7v-2.938A3.2,3.2,0,0,1,5.766-25a1.037,1.037,0,0,1,.952-.482.8.8,0,0,1,.715.341,1.877,1.877,0,0,1,.222,1.011v3.649Zm0,0" transform="translate(-3.766 26.844)" fill="#4e008e"/>
          </g>
        </g>
        <g id="Group_4314" data-name="Group 4314" transform="translate(-20616.416 -778.926)">
          <g id="Group_4313" data-name="Group 4313" transform="translate(0 0)">
            <path id="Path_899" data-name="Path 899" d="M7.2-20.368a2.153,2.153,0,0,0,1.274-.385,2.477,2.477,0,0,0,.841-1.122A4.849,4.849,0,0,0,9.6-23.613a3.949,3.949,0,0,0-.626-2.375,2.027,2.027,0,0,0-1.734-.856,1.967,1.967,0,0,0-1.771.926H5.392l-.241-.808H3.766v8.995h1.7v-2.53c0-.085-.026-.385-.089-.908H5.47A2.077,2.077,0,0,0,7.2-20.368ZM6.7-25.48a.95.95,0,0,1,.882.463,2.671,2.671,0,0,1,.285,1.382c0,1.256-.382,1.889-1.145,1.889a1.089,1.089,0,0,1-.952-.437,2.691,2.691,0,0,1-.3-1.441v-.185a2.227,2.227,0,0,1,.3-1.286A1.09,1.09,0,0,1,6.7-25.48Zm0,0" transform="translate(-3.766 26.844)" fill="#4e008e"/>
          </g>
        </g>
        <g id="Group_4316" data-name="Group 4316" transform="translate(-20609.564 -778.926)">
          <g id="Group_4315" data-name="Group 4315" transform="translate(0 0)">
            <path id="Path_900" data-name="Path 900" d="M5.139-25.632A1.1,1.1,0,0,1,6-25.284a1.406,1.406,0,0,1,.33.971H3.935a1.572,1.572,0,0,1,.352-.971A1.077,1.077,0,0,1,5.139-25.632Zm.241,5.264a5.669,5.669,0,0,0,1.237-.111,3.6,3.6,0,0,0,.956-.33v-1.319a5.122,5.122,0,0,1-1.048.374,4.732,4.732,0,0,1-1.067.119,1.5,1.5,0,0,1-1.13-.408A1.633,1.633,0,0,1,3.9-23.18H7.925v-.826a2.836,2.836,0,0,0-.737-2.082,2.747,2.747,0,0,0-2.06-.756,2.813,2.813,0,0,0-2.175.856,3.5,3.5,0,0,0-.782,2.43A3.158,3.158,0,0,0,3.02-21.2,3.219,3.219,0,0,0,5.38-20.368Zm0,0" transform="translate(-2.172 26.844)" fill="#4e008e"/>
          </g>
        </g>
        <g id="Group_4318" data-name="Group 4318" transform="translate(-20602.441 -778.926)">
          <g id="Group_4317" data-name="Group 4317" transform="translate(0 0)">
            <path id="Path_901" data-name="Path 901" d="M7.255-26.844a1.932,1.932,0,0,0-1.074.319,2.344,2.344,0,0,0-.789.848H5.31l-.252-1.048H3.766v6.246h1.7v-3.179a1.513,1.513,0,0,1,.456-1.174A1.818,1.818,0,0,1,7.2-25.251a1.836,1.836,0,0,1,.5.056l.13-1.6A2.764,2.764,0,0,0,7.255-26.844Zm0,0" transform="translate(-3.766 26.844)" fill="#4e008e"/>
          </g>
        </g>
        <g id="Group_4320" data-name="Group 4320" transform="translate(-20597.84 -778.926)">
          <g id="Group_4319" data-name="Group 4319" transform="translate(0 0)">
            <path id="Path_902" data-name="Path 902" d="M5.139-25.632A1.1,1.1,0,0,1,6-25.284a1.406,1.406,0,0,1,.33.971H3.935a1.572,1.572,0,0,1,.352-.971A1.077,1.077,0,0,1,5.139-25.632Zm.241,5.264a5.669,5.669,0,0,0,1.237-.111,3.6,3.6,0,0,0,.956-.33v-1.319a5.122,5.122,0,0,1-1.048.374,4.732,4.732,0,0,1-1.067.119,1.5,1.5,0,0,1-1.13-.408A1.633,1.633,0,0,1,3.9-23.18H7.925v-.826a2.836,2.836,0,0,0-.737-2.082,2.747,2.747,0,0,0-2.06-.756,2.813,2.813,0,0,0-2.175.856,3.5,3.5,0,0,0-.782,2.43A3.158,3.158,0,0,0,3.02-21.2,3.219,3.219,0,0,0,5.38-20.368Zm0,0" transform="translate(-2.172 26.844)" fill="#4e008e"/>
          </g>
        </g>
        <g id="Group_4322" data-name="Group 4322" transform="translate(-20591.098 -778.926)">
          <g id="Group_4321" data-name="Group 4321" transform="translate(0 0)">
            <path id="Path_903" data-name="Path 903" d="M5.139-25.632A1.1,1.1,0,0,1,6-25.284a1.406,1.406,0,0,1,.33.971H3.935a1.572,1.572,0,0,1,.352-.971A1.077,1.077,0,0,1,5.139-25.632Zm.241,5.264a5.669,5.669,0,0,0,1.237-.111,3.6,3.6,0,0,0,.956-.33v-1.319a5.122,5.122,0,0,1-1.048.374,4.732,4.732,0,0,1-1.067.119,1.5,1.5,0,0,1-1.13-.408A1.633,1.633,0,0,1,3.9-23.18H7.925v-.826a2.836,2.836,0,0,0-.737-2.082,2.747,2.747,0,0,0-2.06-.756,2.813,2.813,0,0,0-2.175.856,3.5,3.5,0,0,0-.782,2.43A3.158,3.158,0,0,0,3.02-21.2,3.219,3.219,0,0,0,5.38-20.368Zm0,0" transform="translate(-2.172 26.844)" fill="#4e008e"/>
          </g>
        </g>
        <g id="Group_4324" data-name="Group 4324" transform="translate(-20583.973 -778.926)">
          <g id="Group_4323" data-name="Group 4323" transform="translate(0 0)">
            <path id="Path_904" data-name="Path 904" d="M9.534-20.479v-4.075a2.394,2.394,0,0,0-.563-1.7,2.2,2.2,0,0,0-1.656-.585,2.682,2.682,0,0,0-1.134.23,1.825,1.825,0,0,0-.789.685H5.3l-.23-.8h-1.3v6.246h1.7v-2.938a3.014,3.014,0,0,1,.319-1.589,1.171,1.171,0,0,1,1.034-.474.869.869,0,0,1,.767.341,1.712,1.712,0,0,1,.241,1.011v3.649Zm0,0" transform="translate(-3.766 26.844)" fill="#4e008e"/>
          </g>
        </g>
        <g id="Group_4326" data-name="Group 4326" transform="translate(-20574.371 -778.807)">
          <g id="Group_4325" data-name="Group 4325" transform="translate(0 0)">
            <path id="Path_905" data-name="Path 905" d="M0-26.344l2.482,6.2-.1.307A1.809,1.809,0,0,1,1.856-19a1.2,1.2,0,0,1-.793.278A2.735,2.735,0,0,1,.393-18.8v1.352a3.952,3.952,0,0,0,.863.1,2.611,2.611,0,0,0,1.571-.485A3.035,3.035,0,0,0,3.868-19.3l2.641-7.046H4.683L3.527-22.832a4.635,4.635,0,0,0-.241,1.085H3.253a5.141,5.141,0,0,0-.207-1.085L1.867-26.344Zm0,0" transform="translate(0 26.344)" fill="#4e008e"/>
          </g>
        </g>
        <g id="Group_4328" data-name="Group 4328" transform="translate(-20566.988 -781.256)">
          <g id="Group_4327" data-name="Group 4327" transform="translate(0 0)">
            <path id="Path_906" data-name="Path 906" d="M5.47-27.977v-8.695h-1.7v8.695Zm0,0" transform="translate(-3.766 36.672)" fill="#4e008e"/>
          </g>
        </g>
        <g id="Group_4330" data-name="Group 4330" transform="translate(-20563.563 -781.256)">
          <g id="Group_4329" data-name="Group 4329" transform="translate(0 0)">
            <path id="Path_907" data-name="Path 907" d="M3.469-35.838c0,.559.307.837.926.837a1.01,1.01,0,0,0,.7-.219.84.84,0,0,0,.226-.619c0-.556-.3-.834-.926-.834S3.469-36.394,3.469-35.838Zm1.775,7.861v-6.246h-1.7v6.246Zm0,0" transform="translate(-3.469 36.672)" fill="#4e008e"/>
          </g>
        </g>
        <g id="Group_4332" data-name="Group 4332" transform="translate(-20560.371 -778.926)">
          <g id="Group_4331" data-name="Group 4331" transform="translate(0 0)">
            <path id="Path_908" data-name="Path 908" d="M3.909-23.613a2.576,2.576,0,0,1,.3-1.393,1.09,1.09,0,0,1,.985-.463,1.1,1.1,0,0,1,.989.463,2.585,2.585,0,0,1,.3,1.393,2.632,2.632,0,0,1-.3,1.4,1.063,1.063,0,0,1-.978.478,1.078,1.078,0,0,1-.989-.478A2.575,2.575,0,0,1,3.909-23.613Zm4.32,0a3.728,3.728,0,0,0-.37-1.715A2.621,2.621,0,0,0,6.8-26.451a3.136,3.136,0,0,0-1.586-.393A2.949,2.949,0,0,0,2.968-26a3.353,3.353,0,0,0-.8,2.382,3.814,3.814,0,0,0,.367,1.719,2.7,2.7,0,0,0,1.056,1.137,3.216,3.216,0,0,0,1.589.389,2.92,2.92,0,0,0,2.241-.859A3.374,3.374,0,0,0,8.229-23.613Zm0,0" transform="translate(-2.172 26.844)" fill="#4e008e"/>
          </g>
        </g>
        <g id="Group_4334" data-name="Group 4334" transform="translate(-20552.91 -778.926)">
          <g id="Group_4333" data-name="Group 4333" transform="translate(0 0)">
            <path id="Path_909" data-name="Path 909" d="M7.2-20.368a2.153,2.153,0,0,0,1.274-.385,2.477,2.477,0,0,0,.841-1.122A4.849,4.849,0,0,0,9.6-23.613a3.949,3.949,0,0,0-.626-2.375,2.027,2.027,0,0,0-1.734-.856,1.967,1.967,0,0,0-1.771.926H5.392l-.241-.808H3.766v8.995h1.7v-2.53c0-.085-.026-.385-.089-.908H5.47A2.077,2.077,0,0,0,7.2-20.368ZM6.7-25.48a.95.95,0,0,1,.882.463,2.671,2.671,0,0,1,.285,1.382c0,1.256-.382,1.889-1.145,1.889a1.089,1.089,0,0,1-.952-.437,2.691,2.691,0,0,1-.3-1.441v-.185a2.227,2.227,0,0,1,.3-1.286A1.09,1.09,0,0,1,6.7-25.48Zm0,0" transform="translate(-3.766 26.844)" fill="#4e008e"/>
          </g>
        </g>
        <g id="Group_4336" data-name="Group 4336" transform="translate(-20545.752 -781.256)">
          <g id="Group_4335" data-name="Group 4335" transform="translate(0 0)">
            <path id="Path_910" data-name="Path 910" d="M3.469-35.838c0,.559.307.837.926.837a1.01,1.01,0,0,0,.7-.219.84.84,0,0,0,.226-.619c0-.556-.3-.834-.926-.834S3.469-36.394,3.469-35.838Zm1.775,7.861v-6.246h-1.7v6.246Zm0,0" transform="translate(-3.469 36.672)" fill="#4e008e"/>
          </g>
        </g>
        <g id="Group_4338" data-name="Group 4338" transform="translate(-20542.564 -778.926)">
          <g id="Group_4337" data-name="Group 4337" transform="translate(0 0)">
            <path id="Path_911" data-name="Path 911" d="M6.91-22.335a1.818,1.818,0,0,0-.163-.8,1.585,1.585,0,0,0-.5-.593,4.86,4.86,0,0,0-1.071-.556,6.487,6.487,0,0,1-1.067-.5.483.483,0,0,1-.241-.4c0-.274.252-.407.752-.407a2.778,2.778,0,0,1,.834.13,7.767,7.767,0,0,1,.878.33l.515-1.23a5.159,5.159,0,0,0-2.2-.493,3.143,3.143,0,0,0-1.826.452A1.483,1.483,0,0,0,2.172-25.1a1.878,1.878,0,0,0,.156.819,1.557,1.557,0,0,0,.493.589,5.072,5.072,0,0,0,1.056.559,7.171,7.171,0,0,1,.8.374,1.913,1.913,0,0,1,.426.278.466.466,0,0,1,.122.33c0,.359-.307.537-.93.537a4.328,4.328,0,0,1-1.045-.152,5.658,5.658,0,0,1-1.071-.374v1.408a4.81,4.81,0,0,0,.9.274,6.837,6.837,0,0,0,1.16.089,3.269,3.269,0,0,0,2-.5A1.715,1.715,0,0,0,6.91-22.335Zm0,0" transform="translate(-2.172 26.844)" fill="#4e008e"/>
          </g>
        </g>
        <g id="Group_4340" data-name="Group 4340" transform="translate(-20537.125 -780.137)">
          <g id="Group_4339" data-name="Group 4339" transform="translate(0 0)">
            <path id="Path_912" data-name="Path 912" d="M4.373-25.622a.808.808,0,0,1-.545-.174.68.68,0,0,1-.2-.537v-3.012H5.377v-1.278H3.629v-1.33H2.539l-.493,1.319-.937.571v.719h.815v3.012a2.272,2.272,0,0,0,.463,1.552,1.943,1.943,0,0,0,1.493.515,3.767,3.767,0,0,0,1.563-.285v-1.267A3.727,3.727,0,0,1,4.373-25.622Zm0,0" transform="translate(-1.109 31.953)" fill="#4e008e"/>
          </g>
        </g>
        <g id="Group_4342" data-name="Group 4342" transform="translate(-20531.893 -778.926)">
          <g id="Group_4341" data-name="Group 4341" transform="translate(0 0)">
            <path id="Path_913" data-name="Path 913" d="M3.909-23.613a2.576,2.576,0,0,1,.3-1.393,1.09,1.09,0,0,1,.985-.463,1.1,1.1,0,0,1,.989.463,2.585,2.585,0,0,1,.3,1.393,2.632,2.632,0,0,1-.3,1.4,1.063,1.063,0,0,1-.978.478,1.078,1.078,0,0,1-.989-.478A2.575,2.575,0,0,1,3.909-23.613Zm4.32,0a3.728,3.728,0,0,0-.37-1.715A2.621,2.621,0,0,0,6.8-26.451a3.136,3.136,0,0,0-1.586-.393A2.949,2.949,0,0,0,2.968-26a3.353,3.353,0,0,0-.8,2.382,3.814,3.814,0,0,0,.367,1.719,2.7,2.7,0,0,0,1.056,1.137,3.216,3.216,0,0,0,1.589.389,2.92,2.92,0,0,0,2.241-.859A3.374,3.374,0,0,0,8.229-23.613Zm0,0" transform="translate(-2.172 26.844)" fill="#4e008e"/>
          </g>
        </g>
        <g id="Group_4344" data-name="Group 4344" transform="translate(-20640.949 -768.767)">
          <g id="Group_4343" data-name="Group 4343" transform="translate(0 0)">
            <path id="Path_914" data-name="Path 914" d="M4.918-26.284v-6.728H7.137v-1.441H.969v1.441H3.188v6.728Zm0,0" transform="translate(-0.969 34.453)" fill="#4e008e"/>
          </g>
        </g>
        <g id="Group_4346" data-name="Group 4346" transform="translate(-20634.979 -766.974)">
          <g id="Group_4345" data-name="Group 4345" transform="translate(0 0)">
            <path id="Path_915" data-name="Path 915" d="M6.41-20.515H7.6v-4.164a2.019,2.019,0,0,0-.671-1.663A2.984,2.984,0,0,0,5-26.891a5.086,5.086,0,0,0-2.389.563l.563,1.152a4.466,4.466,0,0,1,1.76-.452.849.849,0,0,1,.971.948v.274l-1.082.033a4.012,4.012,0,0,0-2.1.526,1.65,1.65,0,0,0-.693,1.463,1.982,1.982,0,0,0,.511,1.463,1.948,1.948,0,0,0,1.423.515,2.755,2.755,0,0,0,1.182-.211,2.388,2.388,0,0,0,.889-.748H6.08Zm-.5-2.893v.511a1.189,1.189,0,0,1-.356.908,1.286,1.286,0,0,1-.945.341c-.552,0-.826-.241-.826-.722a.846.846,0,0,1,.363-.748,2.1,2.1,0,0,1,1.1-.267Zm0,0" transform="translate(-2.031 26.891)" fill="#4e008e"/>
          </g>
        </g>
        <g id="Group_4348" data-name="Group 4348" transform="translate(-20627.656 -766.963)">
          <g id="Group_4347" data-name="Group 4347" transform="translate(0 0)">
            <path id="Path_916" data-name="Path 916" d="M9.36-20.479v-3.134a2.591,2.591,0,0,1,.307-1.419,1.074,1.074,0,0,1,.937-.448.807.807,0,0,1,.719.341,1.877,1.877,0,0,1,.222,1.011v3.649h1.708v-4.075a2.4,2.4,0,0,0-.545-1.749,2.2,2.2,0,0,0-1.6-.541A2.414,2.414,0,0,0,10-26.6a1.7,1.7,0,0,0-.745.674H9.108a1.969,1.969,0,0,0-1.9-.915,2.453,2.453,0,0,0-1.089.241,1.755,1.755,0,0,0-.726.674H5.3l-.23-.8h-1.3v6.246h1.7v-2.938A3.2,3.2,0,0,1,5.766-25a1.037,1.037,0,0,1,.952-.482.8.8,0,0,1,.715.341,1.877,1.877,0,0,1,.222,1.011v3.649Zm0,0" transform="translate(-3.766 26.844)" fill="#4e008e"/>
          </g>
        </g>
        <g id="Group_4350" data-name="Group 4350" transform="translate(-20616.416 -766.963)">
          <g id="Group_4349" data-name="Group 4349" transform="translate(0 0)">
            <path id="Path_917" data-name="Path 917" d="M7.2-20.368a2.153,2.153,0,0,0,1.274-.385,2.477,2.477,0,0,0,.841-1.122A4.849,4.849,0,0,0,9.6-23.613a3.949,3.949,0,0,0-.626-2.375,2.027,2.027,0,0,0-1.734-.856,1.967,1.967,0,0,0-1.771.926H5.392l-.241-.808H3.766v8.995h1.7v-2.53c0-.085-.026-.385-.089-.908H5.47A2.077,2.077,0,0,0,7.2-20.368ZM6.7-25.48a.95.95,0,0,1,.882.463,2.671,2.671,0,0,1,.285,1.382c0,1.256-.382,1.889-1.145,1.889a1.089,1.089,0,0,1-.952-.437,2.691,2.691,0,0,1-.3-1.441v-.185a2.227,2.227,0,0,1,.3-1.286A1.09,1.09,0,0,1,6.7-25.48Zm0,0" transform="translate(-3.766 26.844)" fill="#4e008e"/>
          </g>
        </g>
        <g id="Group_4352" data-name="Group 4352" transform="translate(-20609.564 -766.963)">
          <g id="Group_4351" data-name="Group 4351" transform="translate(0 0)">
            <path id="Path_918" data-name="Path 918" d="M5.139-25.632A1.1,1.1,0,0,1,6-25.284a1.406,1.406,0,0,1,.33.971H3.935a1.572,1.572,0,0,1,.352-.971A1.077,1.077,0,0,1,5.139-25.632Zm.241,5.264a5.669,5.669,0,0,0,1.237-.111,3.6,3.6,0,0,0,.956-.33v-1.319a5.122,5.122,0,0,1-1.048.374,4.732,4.732,0,0,1-1.067.119,1.5,1.5,0,0,1-1.13-.408A1.633,1.633,0,0,1,3.9-23.18H7.925v-.826a2.836,2.836,0,0,0-.737-2.082,2.747,2.747,0,0,0-2.06-.756,2.813,2.813,0,0,0-2.175.856,3.5,3.5,0,0,0-.782,2.43A3.158,3.158,0,0,0,3.02-21.2,3.219,3.219,0,0,0,5.38-20.368Zm0,0" transform="translate(-2.172 26.844)" fill="#4e008e"/>
          </g>
        </g>
        <g id="Group_4354" data-name="Group 4354" transform="translate(-20602.441 -766.963)">
          <g id="Group_4353" data-name="Group 4353" transform="translate(0 0)">
            <path id="Path_919" data-name="Path 919" d="M7.255-26.844a1.932,1.932,0,0,0-1.074.319,2.344,2.344,0,0,0-.789.848H5.31l-.252-1.048H3.766v6.246h1.7v-3.179a1.513,1.513,0,0,1,.456-1.174A1.818,1.818,0,0,1,7.2-25.251a1.836,1.836,0,0,1,.5.056l.13-1.6A2.764,2.764,0,0,0,7.255-26.844Zm0,0" transform="translate(-3.766 26.844)" fill="#4e008e"/>
          </g>
        </g>
        <g id="Group_4356" data-name="Group 4356" transform="translate(-20597.84 -766.963)">
          <g id="Group_4355" data-name="Group 4355" transform="translate(0 0)">
            <path id="Path_920" data-name="Path 920" d="M5.139-25.632A1.1,1.1,0,0,1,6-25.284a1.406,1.406,0,0,1,.33.971H3.935a1.572,1.572,0,0,1,.352-.971A1.077,1.077,0,0,1,5.139-25.632Zm.241,5.264a5.669,5.669,0,0,0,1.237-.111,3.6,3.6,0,0,0,.956-.33v-1.319a5.122,5.122,0,0,1-1.048.374,4.732,4.732,0,0,1-1.067.119,1.5,1.5,0,0,1-1.13-.408A1.633,1.633,0,0,1,3.9-23.18H7.925v-.826a2.836,2.836,0,0,0-.737-2.082,2.747,2.747,0,0,0-2.06-.756,2.813,2.813,0,0,0-2.175.856,3.5,3.5,0,0,0-.782,2.43A3.158,3.158,0,0,0,3.02-21.2,3.219,3.219,0,0,0,5.38-20.368Zm0,0" transform="translate(-2.172 26.844)" fill="#4e008e"/>
          </g>
        </g>
        <g id="Group_4358" data-name="Group 4358" transform="translate(-20587.684 -768.767)">
          <g id="Group_4357" data-name="Group 4357" transform="translate(0 0)">
            <path id="Path_921" data-name="Path 921" d="M10.8-34.453H9.073v4.99a2.061,2.061,0,0,1-.385,1.389,1.511,1.511,0,0,1-1.23.448A1.567,1.567,0,0,1,6.2-28.066a2.106,2.106,0,0,1-.378-1.386v-5H4.094v5.264a2.874,2.874,0,0,0,.874,2.212,3.469,3.469,0,0,0,2.445.8,4.191,4.191,0,0,0,1.812-.363A2.69,2.69,0,0,0,10.4-27.581a3.065,3.065,0,0,0,.4-1.586Zm0,0" transform="translate(-4.094 34.453)" fill="#4e008e"/>
          </g>
        </g>
        <g id="Group_4360" data-name="Group 4360" transform="translate(-20579.109 -766.963)">
          <g id="Group_4359" data-name="Group 4359" transform="translate(0 0)">
            <path id="Path_922" data-name="Path 922" d="M9.534-20.479v-4.075a2.394,2.394,0,0,0-.563-1.7,2.2,2.2,0,0,0-1.656-.585,2.682,2.682,0,0,0-1.134.23,1.825,1.825,0,0,0-.789.685H5.3l-.23-.8h-1.3v6.246h1.7v-2.938a3.014,3.014,0,0,1,.319-1.589,1.171,1.171,0,0,1,1.034-.474.869.869,0,0,1,.767.341,1.712,1.712,0,0,1,.241,1.011v3.649Zm0,0" transform="translate(-3.766 26.844)" fill="#4e008e"/>
          </g>
        </g>
        <g id="Group_4362" data-name="Group 4362" transform="translate(-20571.672 -769.293)">
          <g id="Group_4361" data-name="Group 4361" transform="translate(0 0)">
            <path id="Path_923" data-name="Path 923" d="M3.469-35.838c0,.559.307.837.926.837a1.01,1.01,0,0,0,.7-.219.84.84,0,0,0,.226-.619c0-.556-.3-.834-.926-.834S3.469-36.394,3.469-35.838Zm1.775,7.861v-6.246h-1.7v6.246Zm0,0" transform="translate(-3.469 36.672)" fill="#4e008e"/>
          </g>
        </g>
        <g id="Group_4364" data-name="Group 4364" transform="translate(-20568.994 -766.844)">
          <g id="Group_4363" data-name="Group 4363" transform="translate(0 0)">
            <path id="Path_924" data-name="Path 924" d="M2.382-20.1H4.131l2.378-6.246H4.727l-1.2,3.56a5.214,5.214,0,0,0-.252,1.278H3.242a6.375,6.375,0,0,0-.252-1.278l-1.208-3.56H0Zm0,0" transform="translate(0 26.344)" fill="#4e008e"/>
          </g>
        </g>
        <g id="Group_4366" data-name="Group 4366" transform="translate(-20561.99 -766.963)">
          <g id="Group_4365" data-name="Group 4365" transform="translate(0 0)">
            <path id="Path_925" data-name="Path 925" d="M5.139-25.632A1.1,1.1,0,0,1,6-25.284a1.406,1.406,0,0,1,.33.971H3.935a1.572,1.572,0,0,1,.352-.971A1.077,1.077,0,0,1,5.139-25.632Zm.241,5.264a5.669,5.669,0,0,0,1.237-.111,3.6,3.6,0,0,0,.956-.33v-1.319a5.122,5.122,0,0,1-1.048.374,4.732,4.732,0,0,1-1.067.119,1.5,1.5,0,0,1-1.13-.408A1.633,1.633,0,0,1,3.9-23.18H7.925v-.826a2.836,2.836,0,0,0-.737-2.082,2.747,2.747,0,0,0-2.06-.756,2.813,2.813,0,0,0-2.175.856,3.5,3.5,0,0,0-.782,2.43A3.158,3.158,0,0,0,3.02-21.2,3.219,3.219,0,0,0,5.38-20.368Zm0,0" transform="translate(-2.172 26.844)" fill="#4e008e"/>
          </g>
        </g>
        <g id="Group_4368" data-name="Group 4368" transform="translate(-20554.869 -766.963)">
          <g id="Group_4367" data-name="Group 4367" transform="translate(0 0)">
            <path id="Path_926" data-name="Path 926" d="M7.255-26.844a1.932,1.932,0,0,0-1.074.319,2.344,2.344,0,0,0-.789.848H5.31l-.252-1.048H3.766v6.246h1.7v-3.179a1.513,1.513,0,0,1,.456-1.174A1.818,1.818,0,0,1,7.2-25.251a1.836,1.836,0,0,1,.5.056l.13-1.6A2.764,2.764,0,0,0,7.255-26.844Zm0,0" transform="translate(-3.766 26.844)" fill="#4e008e"/>
          </g>
        </g>
        <g id="Group_4370" data-name="Group 4370" transform="translate(-20550.041 -766.963)">
          <g id="Group_4369" data-name="Group 4369" transform="translate(0 0)">
            <path id="Path_927" data-name="Path 927" d="M6.91-22.335a1.818,1.818,0,0,0-.163-.8,1.585,1.585,0,0,0-.5-.593,4.86,4.86,0,0,0-1.071-.556,6.487,6.487,0,0,1-1.067-.5.483.483,0,0,1-.241-.4c0-.274.252-.407.752-.407a2.778,2.778,0,0,1,.834.13,7.767,7.767,0,0,1,.878.33l.515-1.23a5.159,5.159,0,0,0-2.2-.493,3.143,3.143,0,0,0-1.826.452A1.483,1.483,0,0,0,2.172-25.1a1.878,1.878,0,0,0,.156.819,1.557,1.557,0,0,0,.493.589,5.072,5.072,0,0,0,1.056.559,7.171,7.171,0,0,1,.8.374,1.913,1.913,0,0,1,.426.278.466.466,0,0,1,.122.33c0,.359-.307.537-.93.537a4.328,4.328,0,0,1-1.045-.152,5.658,5.658,0,0,1-1.071-.374v1.408a4.81,4.81,0,0,0,.9.274,6.837,6.837,0,0,0,1.16.089,3.269,3.269,0,0,0,2-.5A1.715,1.715,0,0,0,6.91-22.335Zm0,0" transform="translate(-2.172 26.844)" fill="#4e008e"/>
          </g>
        </g>
        <g id="Group_4372" data-name="Group 4372" transform="translate(-20544.045 -769.293)">
          <g id="Group_4371" data-name="Group 4371" transform="translate(0 0)">
            <path id="Path_928" data-name="Path 928" d="M3.469-35.838c0,.559.307.837.926.837a1.01,1.01,0,0,0,.7-.219.84.84,0,0,0,.226-.619c0-.556-.3-.834-.926-.834S3.469-36.394,3.469-35.838Zm1.775,7.861v-6.246h-1.7v6.246Zm0,0" transform="translate(-3.469 36.672)" fill="#4e008e"/>
          </g>
        </g>
        <g id="Group_4374" data-name="Group 4374" transform="translate(-20541.107 -768.174)">
          <g id="Group_4373" data-name="Group 4373" transform="translate(0 0)">
            <path id="Path_929" data-name="Path 929" d="M4.373-25.622a.808.808,0,0,1-.545-.174.68.68,0,0,1-.2-.537v-3.012H5.377v-1.278H3.629v-1.33H2.539l-.493,1.319-.937.571v.719h.815v3.012a2.272,2.272,0,0,0,.463,1.552,1.943,1.943,0,0,0,1.493.515,3.767,3.767,0,0,0,1.563-.285v-1.267A3.727,3.727,0,0,1,4.373-25.622Zm0,0" transform="translate(-1.109 31.953)" fill="#4e008e"/>
          </g>
        </g>
        <g id="Group_4376" data-name="Group 4376" transform="translate(-20536.391 -766.844)">
          <g id="Group_4375" data-name="Group 4375" transform="translate(0 0)">
            <path id="Path_930" data-name="Path 930" d="M0-26.344l2.482,6.2-.1.307A1.809,1.809,0,0,1,1.856-19a1.2,1.2,0,0,1-.793.278A2.735,2.735,0,0,1,.393-18.8v1.352a3.952,3.952,0,0,0,.863.1,2.611,2.611,0,0,0,1.571-.485A3.035,3.035,0,0,0,3.868-19.3l2.641-7.046H4.683L3.527-22.832a4.635,4.635,0,0,0-.241,1.085H3.253a5.141,5.141,0,0,0-.207-1.085L1.867-26.344Zm0,0" transform="translate(0 26.344)" fill="#4e008e"/>
          </g>
        </g>
        <path id="Path_931" data-name="Path 931" d="M30.766,94.094v3.36h2.689v-6.72H30.766" transform="translate(-20708.371 -875.44)" fill="#4e008e"/>
        <path id="Path_932" data-name="Path 932" d="M30.766-138.346v3.36h2.689v-6.72H30.766Zm0,0" transform="translate(-20708.371 -642.999)" fill="none" stroke="#4e008e" stroke-miterlimit="10" stroke-width="0.12"/>
        <path id="Path_933" data-name="Path 933" d="M53.445,109.086v1.344h6.72v-2.688h-6.72" transform="translate(-20725.674 -888.415)" fill="#4e008e"/>
        <path id="Path_934" data-name="Path 934" d="M53.445-123.354v1.344h6.72V-124.7h-6.72Zm0,0" transform="translate(-20725.674 -655.975)" fill="none" stroke="#4e008e" stroke-miterlimit="10" stroke-width="0.12"/>
        <path id="Path_935" data-name="Path 935" d="M93.129,113.791v-6.049h9.409v2.688h-6.72v9.41H93.129" transform="translate(-20755.947 -888.415)" fill="#4e008e"/>
        <path id="Path_936" data-name="Path 936" d="M93.129-118.649V-124.7h9.409v2.688h-6.72v9.41H93.129Zm0,0" transform="translate(-20755.947 -655.975)" fill="none" stroke="#4e008e" stroke-miterlimit="10" stroke-width="0.12"/>
        <path id="Path_937" data-name="Path 937" d="M144.152,111.775v4.033h2.689v-8.065h-2.689" transform="translate(-20794.873 -888.415)" fill="#4e008e"/>
        <path id="Path_938" data-name="Path 938" d="M144.152-120.665v4.032h2.689V-124.7h-2.689Zm0,0" transform="translate(-20794.873 -655.975)" fill="none" stroke="#4e008e" stroke-miterlimit="10" stroke-width="0.12"/>
        <path id="Path_939" data-name="Path 939" d="M42.863,32.151a12.1,12.1,0,0,0-9.409,11.8H30.766a14.786,14.786,0,0,1,12.1-14.541" transform="translate(-20708.371 -828.652)" fill="#4e008e"/>
        <path id="Path_940" data-name="Path 940" d="M42.863-200.289a12.1,12.1,0,0,0-9.409,11.8H30.766a14.786,14.786,0,0,1,12.1-14.541Zm0,0" transform="translate(-20708.371 -596.212)" fill="none" stroke="#4e008e" stroke-miterlimit="10" stroke-width="0.12"/>
        <path id="Path_941" data-name="Path 941" d="M93.129,127.9a12.1,12.1,0,0,0,12.1-12.1l2.689-8.065v8.065a14.786,14.786,0,0,1-14.786,14.786" transform="translate(-20755.947 -888.415)" fill="#4e008e"/>
        <path id="Path_942" data-name="Path 942" d="M93.129-104.536a12.1,12.1,0,0,0,12.1-12.1l2.689-8.065v8.065a14.786,14.786,0,0,1-14.786,14.786Zm0,0" transform="translate(-20755.947 -655.975)" fill="none" stroke="#4e008e" stroke-miterlimit="10" stroke-width="0.12"/>
      </g>
    </g>
  </g>
</svg>
