<svg xmlns="http://www.w3.org/2000/svg" width="153" height="56.51" viewBox="0 0 153 56.51">
  <g id="Group_4950" data-name="Group 4950" transform="translate(-793 -865)">
    <rect id="Rectangle_4597" data-name="Rectangle 4597" width="153" height="56.51" transform="translate(793 865)" fill="#fff"/>
    <g id="Group_4908" data-name="Group 4908" transform="translate(-72 -6)">
      <g id="university-of-eastern-finland" transform="translate(866 875)">
        <path id="Path_943" data-name="Path 943" d="M215,37.468h.92V34.479h2.759v-.69h-2.759V31.6H218.9v-.69H215v6.553Zm-5.461-5.978a2.44,2.44,0,0,1,2.3,2.7c0,1.495-.862,2.759-2.3,2.759a2.394,2.394,0,0,1-2.3-2.644c0-1.552.747-2.817,2.3-2.817Zm.057-.69a3.275,3.275,0,0,0-3.392,3.449,3.123,3.123,0,0,0,3.277,3.334,3.241,3.241,0,0,0,3.392-3.449,3.154,3.154,0,0,0-3.277-3.334Z" transform="translate(-87.666 -13.095)"/>
        <path id="Path_944" data-name="Path 944" d="M185.137,51.662a4.85,4.85,0,0,1,1.092-.115c1.954,0,2.932.977,2.932,2.529,0,1.782-1.092,2.817-3.1,2.817a4.362,4.362,0,0,1-.92-.057V51.662Zm-.92,5.863a15.1,15.1,0,0,0,1.725.057,4.683,4.683,0,0,0,3.219-.977,3.335,3.335,0,0,0,1.035-2.587,2.863,2.863,0,0,0-1.035-2.357,4.576,4.576,0,0,0-2.932-.8,20.07,20.07,0,0,0-2.012.115v6.553Zm-7.3,0V54.709c0-1.092,0-1.9-.057-2.7h.057a15.276,15.276,0,0,0,1.38,2.184l2.3,3.334h.92V50.972h-.862v2.759a19.927,19.927,0,0,0,.115,2.7h0a12.672,12.672,0,0,0-1.322-2.127l-2.3-3.334h-1.035v6.611h.8Zm-7.013-2.7.69-1.9.345-1.207h0c.115.4.23.747.4,1.207l.69,1.9Zm2.357.632.747,2.069h.977l-2.472-6.611h-1.15l-2.472,6.611h.977l.747-2.069Zm-9.543,2.069h4.024v-.69h-3.1V50.972h-.92v6.553Zm-7.071,0V54.709c0-1.092,0-1.9-.057-2.7h.057a15.278,15.278,0,0,0,1.38,2.184l2.3,3.334h.92V50.972h-.862v2.759a19.933,19.933,0,0,0,.115,2.7h0a12.672,12.672,0,0,0-1.322-2.127l-2.3-3.334h-1.035v6.611h.8Zm-4.6,0h.92V50.972h-.92v6.553Zm-6.151,0h.92V54.537h2.759v-.69h-2.759V51.662h2.989v-.69H144.9v6.553Zm-10.29,0V54.709c0-1.092,0-1.9-.057-2.7h.057a15.276,15.276,0,0,0,1.38,2.184l2.3,3.334h.92V50.972h-.862v2.759a19.93,19.93,0,0,0,.115,2.7h0a12.675,12.675,0,0,0-1.322-2.127l-2.3-3.334H133.8v6.611h.8Zm-6.9-5.863a3.575,3.575,0,0,1,.92-.057c.977,0,1.667.4,1.667,1.207,0,.747-.632,1.265-1.61,1.265h-.977V51.662Zm-.92,5.863h.92V54.651h.862a1.314,1.314,0,0,1,1.437,1.265,11.5,11.5,0,0,0,.46,1.552h.977a6.932,6.932,0,0,1-.575-1.782,1.647,1.647,0,0,0-1.092-1.322h0a1.778,1.778,0,0,0,1.38-1.667,1.647,1.647,0,0,0-.575-1.265,3.393,3.393,0,0,0-2.127-.517,15.457,15.457,0,0,0-1.782.115v6.5Zm-2.7-3.794h-2.817V51.662h2.989v-.69h-3.909v6.611h4.081v-.69h-3.162V54.537h2.817v-.8Zm-8.393,3.794h.92V51.662h2.242v-.747H113.51v.747h2.184v5.863Zm-7.531-.287a4.151,4.151,0,0,0,1.84.4c1.725,0,2.529-.862,2.529-1.9,0-.977-.632-1.495-1.84-1.954-.977-.345-1.437-.632-1.437-1.265,0-.46.4-.977,1.38-.977a3.309,3.309,0,0,1,1.38.287l.23-.69a3.526,3.526,0,0,0-1.61-.345c-1.437,0-2.357.747-2.357,1.782,0,.92.747,1.495,1.9,1.84.977.345,1.38.69,1.38,1.322,0,.69-.575,1.15-1.495,1.15a3.566,3.566,0,0,1-1.667-.4l-.23.747Zm-5.576-2.414.69-1.9a9.517,9.517,0,0,0,.345-1.207h0c.115.4.23.747.4,1.207l.69,1.9Zm2.414.632.747,2.069h.977l-2.472-6.611h-1.15l-2.472,6.611h.977l.747-2.069Zm-6.208-1.725H95.977V51.662h2.989v-.69H95v6.611h4.081v-.69H95.92V54.537h2.817v-.8Z" transform="translate(-40.389 -21.598)"/>
        <path id="Path_945" data-name="Path 945" d="M152.485,37.426V34.609l2.414-3.794h-1.092l-1.035,1.84c-.287.517-.517.92-.747,1.38h0c-.23-.46-.46-.862-.747-1.38l-1.035-1.84h-1.092l2.3,3.794v2.817Zm-7.3,0h.92V31.562h2.242v-.69H143v.747h2.184v5.806Zm-4.771,0h.92V30.872h-.92v6.553Zm-6.611-.287a4.151,4.151,0,0,0,1.84.4c1.725,0,2.529-.862,2.529-1.9,0-.977-.632-1.495-1.84-1.954-.977-.345-1.437-.632-1.437-1.265,0-.46.4-.977,1.38-.977a3.309,3.309,0,0,1,1.38.287l.23-.69a3.526,3.526,0,0,0-1.61-.345c-1.437,0-2.357.747-2.357,1.782,0,.92.747,1.495,1.9,1.84.977.345,1.38.69,1.38,1.322,0,.69-.575,1.15-1.495,1.15a3.566,3.566,0,0,1-1.667-.4l-.23.747Zm-5.4-5.576a3.575,3.575,0,0,1,.92-.057c.977,0,1.667.4,1.667,1.207,0,.747-.632,1.265-1.61,1.265H128.4V31.562Zm-.92,5.863h.92V34.551h.862a1.314,1.314,0,0,1,1.437,1.265,11.494,11.494,0,0,0,.46,1.552h.977a6.932,6.932,0,0,1-.575-1.782,1.647,1.647,0,0,0-1.092-1.322v-.057a1.778,1.778,0,0,0,1.38-1.667,1.647,1.647,0,0,0-.575-1.265,3.393,3.393,0,0,0-2.127-.517,15.46,15.46,0,0,0-1.782.115v6.553Zm-2.472-3.794H122.19V31.562h2.989v-.69h-3.909v6.611h4.081v-.69H122.19V34.437h2.817v-.8Zm-8.048,3.794,2.587-6.611h-.977l-1.207,3.277a15.42,15.42,0,0,0-.8,2.472h0c-.172-.747-.46-1.552-.747-2.472l-1.15-3.219h-1.035l2.357,6.611h.977Zm-6.093,0h.92V30.872h-.92v6.553Zm-7.128,0V34.609c0-1.092,0-1.9-.057-2.7h.057a15.278,15.278,0,0,0,1.38,2.184l2.3,3.334h.92V30.872h-.862v2.759a19.93,19.93,0,0,0,.115,2.7h0a12.673,12.673,0,0,0-1.322-2.127l-2.3-3.334h-1.035v6.611h.8ZM95,30.872v3.909c0,2.069,1.092,2.817,2.587,2.817a2.544,2.544,0,0,0,2.759-2.874V30.872h-.92v3.909c0,1.437-.69,2.127-1.782,2.127-.977,0-1.667-.632-1.667-2.127V30.872Z" transform="translate(-40.389 -13.052)"/>
        <path id="Path_946" data-name="Path 946" d="M8.9,19.9V10.7a21.459,21.459,0,0,1,9.657,4.771C23.444,19.955,23.5,31.222,23.5,31.222a21.384,21.384,0,0,0-4.829-6.611A23.972,23.972,0,0,0,8.9,19.9Z" transform="translate(-3.784 -4.549)"/>
        <path id="Path_947" data-name="Path 947" d="M46.144,15.471A21.789,21.789,0,0,1,55.8,10.7v9.255a24.525,24.525,0,0,0-9.772,4.656A19.354,19.354,0,0,0,41.2,31.222s.057-11.267,4.944-15.751Z" transform="translate(-17.516 -4.549)"/>
        <path id="Path_948" data-name="Path 948" d="M60.35,35.439V50.845a26.382,26.382,0,0,0-8.105,1.9C44.6,55.5,40,63.032,40,63.032L41.437,50.5c.345-3.219,1.552-8.393,6.266-11.669A19.26,19.26,0,0,1,60.35,35.439Z" transform="translate(-17.006 -15.032)"/>
        <path id="Path_949" data-name="Path 949" d="M0,35.439V50.845a26.382,26.382,0,0,1,8.105,1.9C15.751,55.5,20.35,63.032,20.35,63.032L18.913,50.5c-.345-3.219-1.552-8.393-6.266-11.669A19.26,19.26,0,0,0,0,35.439Z" transform="translate(0 -15.032)"/>
        <path id="Path_950" data-name="Path 950" d="M33.576,13.337a18.406,18.406,0,0,0-2.587-5.519A14.51,14.51,0,0,0,28,4.829L33.576,0l5.576,4.829a14.272,14.272,0,0,0-2.989,3.047,20.146,20.146,0,0,0-2.587,5.461Z" transform="translate(-11.904)"/>
      </g>
    </g>
  </g>
</svg>
