<svg xmlns="http://www.w3.org/2000/svg" width="500.667" height="503.297" viewBox="0 0 500.667 503.297">
  <g id="Group_5006" data-name="Group 5006" transform="translate(19267.695 1392.44)">
    <path id="shadow" d="M786.667,1727.817c0,8.9-112.077,16.107-250.334,16.107S286,1736.713,286,1727.817s112.079-16.107,250.334-16.107S786.667,1718.921,786.667,1727.817Z" transform="translate(-19553.695 -2633.068)" fill="#e8e9ec"/>
    <path id="Path_1051" data-name="Path 1051" d="M1837.944,1094l.1,4.477s-4.306,7.54-4.044,10.294c.347,3.682,7.891,12.51,7.891,12.51l9.413-16.789-7.305-2.429,3.261-8.036Z" transform="translate(-20732.428 -2242.836)" fill="#fcae88"/>
    <path id="Path_1052" data-name="Path 1052" d="M1852.139,745a704.872,704.872,0,0,0-10.663,80.215c-.97,13.431,1.865,36.037-2.526,53.326h17.908Z" transform="translate(-20735.539 -2024.046)" fill="#d4dbdb"/>
    <path id="Path_1053" data-name="Path 1053" d="M2009.638,629.275c-25.889,0-32.1-21.49-23.77-53.5q1.261-4.85,2.959-10c4.563-13.849-4.888-35.13-11.868-37.268,3.731-6.421-4.029-18.173-4.029-18.173s60.363-39.253,52.576,47.566a82.35,82.35,0,0,0-.231,11.279C2027.248,609.972,2058.354,629.275,2009.638,629.275Z" transform="translate(-20819.531 -1871.385)" fill="#6b2310"/>
    <path id="Path_1054" data-name="Path 1054" d="M2025.551,743.024c-25.889,0-32.1-21.49-23.77-53.5,14.319,5.869,28.083,1.142,39.406-6.593C2043.161,723.72,2074.266,743.024,2025.551,743.024Z" transform="translate(-20835.445 -1985.133)" fill="#501a0c"/>
    <path id="Path_1055" data-name="Path 1055" d="M2039.36,515.614c1.53,4.156.481,8.368-2.339,9.409s-6.343-1.492-7.88-5.645-.485-8.372,2.336-9.409S2037.826,511.457,2039.36,515.614Z" transform="translate(-20854.326 -1876.557)" fill="#ffb406"/>
    <path id="Path_1056" data-name="Path 1056" d="M1872.58,1690.838s12.312-6.16,12.555-18.158h12.8a74.051,74.051,0,0,0-.2,7.708c.228,1.366,1.492,6.4,1.492,6.4S1877.214,1706.277,1872.58,1690.838Z" transform="translate(-20756.623 -2605.615)" fill="#fcae88"/>
    <path id="Path_1057" data-name="Path 1057" d="M1855.122,1710.939l2.612,3.667s12.976-6.578,23.561-8.9c3.033-.664,0,14.659,0,14.659h-7.846V1716.7l-10.473,3.664h-19.9S1841.325,1709.368,1855.122,1710.939Z" transform="translate(-20738.084 -2626.305)" fill="#414042"/>
    <path id="Path_1058" data-name="Path 1058" d="M1745.761,1269.08h15.312v7.682H1745.13Z" transform="translate(-20574.875 -2189.748)" fill="#b2151b"/>
    <path id="Path_1059" data-name="Path 1059" d="M2019.79,1691.709V1673.17h12.047s4.932,15.11,3.265,18.173C2033.27,1694.7,2019.79,1691.709,2019.79,1691.709Z" transform="translate(-20848.908 -2605.922)" fill="#fcae88"/>
    <path id="Path_1060" data-name="Path 1060" d="M2030.875,1705.57v6.085a15.734,15.734,0,0,0-15.3,0v-6.085s-5.693,12.76,0,14.722h15.3C2036.568,1718.329,2030.875,1705.57,2030.875,1705.57Z" transform="translate(-20844.682 -2626.234)" fill="#414042"/>
    <path id="Path_1061" data-name="Path 1061" d="M1661.281,708.8l-1.119,57.952-2.724,140.783h-17.491L1624.92,761.361l-2.9-28.2-1.011,27.6-5.369,146.775h-18.655L1584.8,755.22,1581.38,712.5l-.25-3.7Z" transform="translate(-20472.061 -1838.504)" fill="#676668"/>
    <path id="Path_1062" data-name="Path 1062" d="M1661.281,708.8l-1.119,57.952-35.242-5.391-2.9-28.2-1.011,27.6-5.387-.825-.933-6.395-4.067,5.63L1584.8,755.22,1581.38,712.5l-.25-3.7Z" transform="translate(-20472.061 -1838.504)" fill="#545355"/>
    <path id="Path_1063" data-name="Path 1063" d="M1933.842,915.872l-17.263.093-11.782.075-21.311.131-2.861-12.181-6.563,12.23-35.112.161s12.972-97.138,4.5-117.946c-1.242-3.056-3.257-13.193-2.9-19.811,1.119-20.319,10.018-52.864,11.566-55.628,4.992-8.854,44.342-13.114,44.342-13.114s33.25,14.11,28.4,23.934c-6.141,12.454-9.2,23.132-10.185,32.866C1910.255,810.387,1947.475,835.041,1933.842,915.872Z" transform="translate(-20735.539 -2002.029)" fill="#f1f2f2"/>
    <path id="Path_1064" data-name="Path 1064" d="M1686.22,273.4l-6.384,11.857-12,22.277-1.187-21.072-.642-11.432Z" transform="translate(-20525.275 -1565.549)" fill="#fcae88"/>
    <path id="Path_1065" data-name="Path 1065" d="M1664.23,234.25l.515,12.514.171,4.141,20.185-2.045-3.1-11.394-.391-1.433Z" transform="translate(-20524.158 -1541.005)" fill="#fcae88"/>
    <path id="Path_1066" data-name="Path 1066" d="M1664.23,234.25l.862,19.755,18.3-11.428-1.787-6.544Z" transform="translate(-20524.158 -1541.005)" fill="#f58d86" opacity="0.6"/>
    <path id="Path_1067" data-name="Path 1067" d="M1936.814,502.782a34.3,34.3,0,1,1-34.3-34.3,34.3,34.3,0,0,1,34.3,34.3Z" transform="translate(-20753.883 -1850.693)" fill="#8e2e15"/>
    <path id="Path_1068" data-name="Path 1068" d="M1939.4,529.689a8.557,8.557,0,0,1-.242,1.865,7.012,7.012,0,0,1-3.615,4.891,3.7,3.7,0,0,1-1.783.321c-2.7,16.211-11.387,27.982-27.52,27.885a25.85,25.85,0,0,1-12.808-3.2c-10.652-6.044-15.2-20.039-15.088-36.287a53.813,53.813,0,0,1,.642-8c2.768-17.841,14.178-31.2,27.78-31.1,15.163.093,27.407,16.879,27.885,37.817a3.4,3.4,0,0,1,1.492.075,2.49,2.49,0,0,1,.5.183C1938.407,524.909,1939.467,527.14,1939.4,529.689Z" transform="translate(-20760.236 -1861.714)" fill="#fcae88"/>
    <path id="Path_1069" data-name="Path 1069" d="M1904.97,565.869c-4.686-2.865-7.413-2.832-12.025.164-.022-1.339-.026-2.011-.045-3.358,4.611-2.985,7.335-3.03,12.028-.16C1904.944,563.862,1904.958,564.53,1904.97,565.869Z" transform="translate(-20769.359 -1908.318)" fill="#8e2e15"/>
    <path id="Path_1070" data-name="Path 1070" d="M1962.167,565.105c-4.689-2.873-7.421-2.836-12.029.16,0-1.336-.03-2.007-.048-3.358,4.611-2.985,7.343-3.026,12.032-.16C1962.137,563.1,1962.144,563.766,1962.167,565.105Z" transform="translate(-20805.211 -1907.838)" fill="#8e2e15"/>
    <path id="Path_1071" data-name="Path 1071" d="M1954.422,622c-2.682,16.215-11.376,27.982-27.508,27.885a25.814,25.814,0,0,1-12.812-3.194c-.631-.7-2.123-1.119-2.772-1.865C1911.755,645.083,1941.629,662.917,1954.422,622Z" transform="translate(-20780.914 -1946.936)" fill="#f58d86" opacity="0.6"/>
    <path id="Path_1072" data-name="Path 1072" d="M1908.21,483.942s26.06,27.9,45.144,31C1954.35,511.126,1946.735,447,1908.21,483.942Z" transform="translate(-20778.957 -1853.224)" fill="#8e2e15"/>
    <path id="Path_1073" data-name="Path 1073" d="M1890.02,503.21s-7.488,24.915-14.11,32.925C1875.988,533.467,1877.413,487.226,1890.02,503.21Z" transform="translate(-20758.709 -1870.365)" fill="#8e2e15"/>
    <path id="Path_1074" data-name="Path 1074" d="M1907.21,589.7c0,1.892-.873,3.432-1.989,3.444s-2.033-1.515-2.052-3.4.873-3.429,1.985-3.44S1907.188,587.811,1907.21,589.7Z" transform="translate(-20775.799 -1924.555)" fill="#501a0c"/>
    <path id="Path_1075" data-name="Path 1075" d="M1966.6,589.129c0,1.892-.873,3.429-1.985,3.444s-2.037-1.515-2.056-3.4.873-3.432,1.989-3.44S1966.581,587.241,1966.6,589.129Z" transform="translate(-20813.031 -1924.198)" fill="#501a0c"/>
    <path id="Path_1076" data-name="Path 1076" d="M1934.556,589.42s1.672,8.227,2.85,14.062c-13.01,3.865-3.059-13.685-2.854-14.051Z" transform="translate(-20793.07 -1926.512)" fill="#fcae88"/>
    <path id="Path_1077" data-name="Path 1077" d="M1937.387,603.5c-13.01,3.865-3.059-13.685-2.854-14.051C1934.387,589.789,1928.074,604.9,1937.387,603.5Z" transform="translate(-20793.059 -1926.53)" fill="#f58d86" opacity="0.6"/>
    <path id="Path_1078" data-name="Path 1078" d="M1919.16,645.731s6.716,14.692,18.55-.821A47.288,47.288,0,0,1,1919.16,645.731Z" transform="translate(-20785.822 -1961.299)" fill="#f1f2f2"/>
    <rect id="Rectangle_4658" data-name="Rectangle 4658" width="23.654" height="10.29" transform="translate(-18850.883 -1248.99)" fill="#fff"/>
    <path id="Path_1079" data-name="Path 1079" d="M1953.851,741.66l-11.995,22.277-1.187-21.072C1943.4,744.969,1947.729,746.081,1953.851,741.66Z" transform="translate(-20799.307 -2021.952)" fill="#8a86fb"/>
    <path id="Path_1080" data-name="Path 1080" d="M1891.225,854.6l-7.622-3.44c-6.742-5.555-12.849-27.557-13.1-28.489l.918-.444c.064.224,6.2,22.337,12.607,27.7l7.462,3.358Z" transform="translate(-20755.318 -2072.462)" fill="#5e5f60"/>
    <path id="Path_1081" data-name="Path 1081" d="M1925.08,905.883a.607.607,0,0,1-.325-.056l-2.433-1.048a1.12,1.12,0,0,1-.567-.638,1.8,1.8,0,0,1-.1-.992c.123-.664.645-1.056,1.119-.851l2.429,1.052a1.119,1.119,0,0,1,.567.638,1.79,1.79,0,0,1,.1.989A1,1,0,0,1,1925.08,905.883Z" transform="translate(-20787.371 -2122.623)" fill="#bcbec0"/>
    <path id="Path_1082" data-name="Path 1082" d="M1891.888,852.776l-.448-1.269,6.887-4.41c5.548-6.253,8.365-29.027,8.391-29.258l.978.306c-.116.959-2.921,23.62-8.775,30.109l-.093.082Z" transform="translate(-20768.443 -2069.71)" fill="#5e5f60"/>
    <path id="Path_1083" data-name="Path 1083" d="M1886.606,908.495a1,1,0,0,1-.925-.78,1.834,1.834,0,0,1-.049-.992,1.157,1.157,0,0,1,.466-.716l2.239-1.4c.44-.276,1.018.037,1.239.675a1.836,1.836,0,0,1,.049.992,1.156,1.156,0,0,1-.466.716l-2.239,1.4a.641.641,0,0,1-.313.1Z" transform="translate(-20764.775 -2124.044)" fill="#bcbec0"/>
    <path id="Path_1084" data-name="Path 1084" d="M1893.1,791.028c-.545.041-1.03-.545-1.089-1.31-.373-4.936-2.324-8.842-5.455-11a9.622,9.622,0,0,0-12.211.963c-1.914,1.832-4.1,5.328-3.6,11.566a1.29,1.29,0,0,1-.877,1.492h0c-.541.037-1.026-.548-1.086-1.31-.463-5.921,1.1-10.917,4.4-14.073a11.193,11.193,0,0,1,14.177-1.119c3.805,2.612,6.16,7.35,6.626,13.323.056.768-.336,1.425-.877,1.47Z" transform="translate(-20754.188 -2042.368)" fill="#231f20"/>
    <path id="Path_1085" data-name="Path 1085" d="M1898.5,741.563c0,.716.034,1.145.037,1.175l-2.186.138c0-.03-.026-.444-.033-1.145-.041-3.145.269-12.073,4.593-18.166,1.011-.373,3.634-1.026,5.3-1.425C1898.986,726.535,1898.471,737.877,1898.5,741.563Z" transform="translate(-20771.496 -2009.715)" fill="#231f20"/>
    <path id="Path_1087" data-name="Path 1087" d="M2007.808,883.913a5.279,5.279,0,1,1-4.138-6.208,5.279,5.279,0,0,1,4.138,6.208Z" transform="translate(-20834.84 -2107.174)" fill="#8d8f90"/>
    <path id="Path_1088" data-name="Path 1088" d="M2008.209,884.724a4.727,4.727,0,1,1-.7-3.553,4.727,4.727,0,0,1,.7,3.553Z" transform="translate(-20835.779 -2108.089)" fill="#bcbec0"/>
    <path id="Path_1089" data-name="Path 1089" d="M2009.213,886.867a3.283,3.283,0,1,1-2.574-3.865A3.283,3.283,0,0,1,2009.213,886.867Z" transform="translate(-20838.201 -2110.52)" fill="#58595b"/>
    <path id="Path_1090" data-name="Path 1090" d="M2044.485,1011.331l-17.263.093-11.782.075c9.734-23.572,14.89-98.258,9.9-112.073-5.746-15.92,0-37.276,0-37.276C2020.9,905.846,2058.118,930.5,2044.485,1011.331Z" transform="translate(-20846.182 -2097.488)" fill="#d4dbdb"/>
    <path id="Path_1091" data-name="Path 1091" d="M1704.134,555.03l10.872,53.293-78.353,7.29-7.783-60.5Z" transform="translate(-20501.99 -1742.105)" fill="#0f9bd9"/>
    <path id="Path_1092" data-name="Path 1092" d="M1709.134,550.03l10.872,53.292-78.353,7.29-7.783-60.5Z" transform="translate(-20505.125 -1738.97)" fill="#e6e7e8"/>
    <path id="Path_1093" data-name="Path 1093" d="M1713.134,550.03l10.872,53.292-78.353,7.29-7.783-60.5Z" transform="translate(-20507.633 -1738.97)" fill="#4ebdef"/>
    <path id="Path_1094" data-name="Path 1094" d="M2024.3,1076.78l-2.4,7.413-7.865,4.082s-7.689,7.954-7.223,8.839c.328.63,2.138.31,3.309.034.963-.228,2.4-2.769,2.862-2.675.705.142-.351,7.51-.351,7.51l-5.559.623s2.9,1.254,3.791,1.713c2.406,1.25,8.663.9,10.82-.746,3.794-2.9,10.073-18.864,10.073-18.864l2.7-5.969Z" transform="translate(-20840.762 -2232.041)" fill="#fcae88"/>
    <path id="Path_1095" data-name="Path 1095" d="M2039.647,743.743c20.147,8.794,32.955,72.608,31.713,79.04-3.265,16.681-22.915,54.5-22.915,54.5l-13.9-3.8,8.518-55.744S2017.918,734.277,2039.647,743.743Z" transform="translate(-20855.811 -2022.789)" fill="#f1f2f2"/>
    <path id="Path_1211" data-name="Path 1211" d="M1899.223,1690.838s-12.312-6.16-12.555-18.158h-12.8a73.977,73.977,0,0,1,.2,7.708c-.227,1.366-1.492,6.4-1.492,6.4S1894.589,1706.277,1899.223,1690.838Z" transform="translate(-21055.959 -2605.615)" fill="#fcae88"/>
    <path id="Path_1212" data-name="Path 1212" d="M1870.527,1710.939l-2.612,3.667s-12.976-6.578-23.561-8.9c-3.033-.664,0,14.659,0,14.659h7.846V1716.7l10.473,3.664h19.9S1884.325,1709.368,1870.527,1710.939Z" transform="translate(-21028.348 -2626.305)" fill="#414042"/>
    <path id="Path_1213" data-name="Path 1213" d="M2035.446,1691.709l-.635-18.539H2023.4s-4.932,15.11-3.264,18.173C2021.966,1694.7,2035.446,1691.709,2035.446,1691.709Z" transform="translate(-21238.373 -2606.296)" fill="#fcae88"/>
    <path id="Path_1214" data-name="Path 1214" d="M2015.578,1705.57v6.085a15.732,15.732,0,0,1,15.3,0v-6.085s5.693,12.76,0,14.722h-15.3C2009.885,1718.329,2015.578,1705.57,2015.578,1705.57Z" transform="translate(-21233.816 -2626.607)" fill="#414042"/>
    <g id="doctor" transform="translate(-19089.336 -1392.44)">
      <rect id="Rectangle_4659" data-name="Rectangle 4659" width="55.833" height="154.207" transform="translate(50.849 231.758)" fill="#b5b6b6"/>
      <rect id="Rectangle_4660" data-name="Rectangle 4660" width="13.349" height="36.705" transform="translate(44.174 436.194)" fill="#8e9091"/>
      <path id="Path_1096" data-name="Path 1096" d="M1335.73,1700.894h60.6s1.4-5.078.709-8.3a2.931,2.931,0,0,0-1.959-2.522c0-3.958-1.865-12.081-7.7-13.122h0c.037.28,1.063,8.41-11.462,0-3.112-2.089-20.763,15.808-33.735,15.614-3.029-.045-4.757,3.015-5.645,5.44A18.007,18.007,0,0,0,1335.73,1700.894Z" transform="translate(-1330.73 -1215.742)" fill="#414042"/>
      <path id="Path_1097" data-name="Path 1097" d="M1474.164,1677.231c.172.243,6.865,9.652,3.988,16.752a16.894,16.894,0,0,0,5.671-1.119,2.931,2.931,0,0,0-1.959-2.522c0-3.958-1.865-12.081-7.7-13.121Z" transform="translate(-1417.513 -1216.021)" fill="#676668"/>
      <rect id="Rectangle_4661" data-name="Rectangle 4661" width="60.601" height="1.347" transform="translate(5 485.152)" fill="#212021"/>
      <path id="Path_1098" data-name="Path 1098" d="M1335.73,1723.24h60.6s2.7-9.786-1.25-10.82c0,0-37.026,14.8-58.542,7.932A18.012,18.012,0,0,0,1335.73,1723.24Z" transform="translate(-1330.73 -1238.088)" fill="#313032"/>
      <path id="Path_1099" data-name="Path 1099" d="M1421.5,1695.121a1.354,1.354,0,1,0,1.354-1.351A1.354,1.354,0,0,0,1421.5,1695.121Z" transform="translate(-1384.5 -1226.396)" fill="#676668"/>
      <path id="Path_1100" data-name="Path 1100" d="M1409.69,1701.541a1.354,1.354,0,1,0,1.351-1.351A1.354,1.354,0,0,0,1409.69,1701.541Z" transform="translate(-1377.097 -1230.421)" fill="#676668"/>
      <path id="Path_1101" data-name="Path 1101" d="M1397.87,1707.954a1.35,1.35,0,1,0,.4-.959A1.354,1.354,0,0,0,1397.87,1707.954Z" transform="translate(-1369.686 -1234.439)" fill="#676668"/>
      <path id="Path_1102" data-name="Path 1102" d="M1349.22,1722c0,.515,1.026.933,2.291.933s2.291-.418,2.291-.933-1.026-.929-2.291-.929S1349.22,1721.484,1349.22,1722Z" transform="translate(-1339.187 -1243.511)" fill="#676668"/>
      <rect id="Rectangle_4662" data-name="Rectangle 4662" width="13.349" height="36.705" transform="translate(99.138 436.194)" fill="#8e9091"/>
      <path id="Path_1103" data-name="Path 1103" d="M1625.486,1700.894h-60.6s-1.4-5.078-.709-8.3a2.923,2.923,0,0,1,1.962-2.522c0-3.958,1.865-12.081,7.7-13.122h0c-.037.28-1.063,8.41,11.458,0,3.112-2.089,20.766,15.808,33.739,15.614,3.03-.045,4.753,3.015,5.645,5.44a18.022,18.022,0,0,1,.806,2.9Z" transform="translate(-1473.824 -1215.742)" fill="#414042"/>
      <path id="Path_1104" data-name="Path 1104" d="M1574.159,1677.231c-.175.243-6.865,9.652-3.989,16.752a16.875,16.875,0,0,1-5.671-1.119,2.924,2.924,0,0,1,1.963-2.522c0-3.958,1.865-12.081,7.7-13.121Z" transform="translate(-1474.148 -1216.021)" fill="#676668"/>
      <rect id="Rectangle_4663" data-name="Rectangle 4663" width="60.598" height="1.347" transform="translate(91.061 485.152)" fill="#212021"/>
      <path id="Path_1105" data-name="Path 1105" d="M1625.486,1723.24h-60.6s-2.7-9.786,1.254-10.82c0,0,37.018,14.8,58.538,7.932A17.988,17.988,0,0,1,1625.486,1723.24Z" transform="translate(-1473.823 -1238.088)" fill="#313032"/>
      <path id="Path_1106" data-name="Path 1106" d="M1638.5,1695.121a1.354,1.354,0,1,1-1.354-1.351A1.354,1.354,0,0,1,1638.5,1695.121Z" transform="translate(-1518.84 -1226.396)" fill="#676668"/>
      <path id="Path_1107" data-name="Path 1107" d="M1650.318,1701.541a1.354,1.354,0,1,1-1.354-1.351A1.354,1.354,0,0,1,1650.318,1701.541Z" transform="translate(-1526.25 -1230.421)" fill="#676668"/>
      <path id="Path_1108" data-name="Path 1108" d="M1662.138,1707.954a1.354,1.354,0,1,1-.4-.959A1.355,1.355,0,0,1,1662.138,1707.954Z" transform="translate(-1533.66 -1234.439)" fill="#676668"/>
      <path id="Path_1109" data-name="Path 1109" d="M1707.641,1722c0,.515-1.026.933-2.291.933s-2.291-.418-2.291-.933,1.026-.929,2.291-.929S1707.641,1721.484,1707.641,1722Z" transform="translate(-1561.012 -1243.511)" fill="#676668"/>
      <path id="Path_1110" data-name="Path 1110" d="M1508.674,1098.16l-7.757,216.371h-22.43c-4.757-104.182-11.823-202.41-11.823-202.41h-2.9s-1.492,80.588-16.733,202.41h-21.606l-2.776-214.286-.034-2.086Z" transform="translate(-1385.203 -853.004)" fill="#414042"/>
      <path id="Path_1111" data-name="Path 1111" d="M1235.7,661.67l-7.753,216.375h-1.574l-2.656-204.88-74.036-9.409-.03-2.086Z" transform="translate(-1112.229 -416.518)" fill="#313032"/>
      <path id="Path_1112" data-name="Path 1112" d="M1211.787,249.33l20.307,28.926,1.851,53.05-11.79,75.178h-62.441l-9.115-84.573,3.276-38.865,17.271-32.134Z" transform="translate(-1112.824 -158.019)" fill="#abe2fc"/>
      <rect id="Rectangle_4664" data-name="Rectangle 4664" width="35.272" height="7.346" transform="translate(60.706 241.496)" fill="#a97c50"/>
      <rect id="Rectangle_4666" data-name="Rectangle 4666" width="21.826" height="26.303" transform="translate(68.149 74.373)" fill="#fcae88"/>
      <path id="Path_1116" data-name="Path 1116" d="M1526.806,640.42v11.1a18.54,18.54,0,0,1-21.826,0v-11.1Z" transform="translate(-1436.834 -566.043)" fill="#b06d4d" opacity="0.32"/>
      <path id="Path_1117" data-name="Path 1117" d="M1534.23,696.714s6.958,3.63,7.544,7.816,11.9-16.58,11.9-16.58Z" transform="translate(-1455.171 -595.84)" fill="#5c9691"/>
      <path id="Path_1118" data-name="Path 1118" d="M1532.79,690.364s6.977,3.731,7.555,7.928,12.887-17.379,12.887-17.379L1544.553,678Z" transform="translate(-1454.269 -589.603)" fill="#c6eafe"/>
      <path id="Path_1119" data-name="Path 1119" d="M1500.114,698.223s-4.406,4.91-4.989,9.092S1483,691.06,1483,691.06Z" transform="translate(-1423.055 -597.79)" fill="#5c9691"/>
      <path id="Path_1120" data-name="Path 1120" d="M1494.743,690.5s-5.858,3.667-6.436,7.835-16.207-16.89-16.207-16.89l11.872-3.227Z" transform="translate(-1416.222 -589.74)" fill="#c6eafe"/>
      <path id="Path_1121" data-name="Path 1121" d="M1430.179,751.056v1.567l-.963,234.824s-6.447,2.985-23.348,1.183c-1.7-.168-3.507-.4-5.432-.687-.575-.086-1.153-.175-1.742-.272-3.634-.578-7.637-1.362-12.043-2.384,4.339-80.756-.6-173.828,1.321-238.212v-.022c.1-3.257.217-6.63.351-10.141.347-9.223.847-19.371,1.492-30.7l16.043-9.432,5.119-3.007.519-.3.977-.578,3.108-1.821,13.969,57.4.616,2.53Z" transform="translate(-1362.653 -597.796)" fill="#f2f1f2"/>
      <path id="Path_1122" data-name="Path 1122" d="M1451.358,689.347c-2.209,2.787-3.358,18.281-3.358,18.281l8.842.81-6.786,8.253,18.584,33.09-5.645-37.567-5.223-25.684S1452.734,687.6,1451.358,689.347Z" transform="translate(-1401.113 -594.95)" fill="#e1e2e2" opacity="0.42"/>
      <path id="Path_1123" data-name="Path 1123" d="M1451.358,682.218c-2.209,2.791-3.358,19.4-3.358,19.4l8.842.81-6.786,8.253,18.584,33.09-5.645-37.567-5.223-26.784S1452.734,680.472,1451.358,682.218Z" transform="translate(-1401.113 -590.493)" fill="#fff"/>
      <path id="Path_1124" data-name="Path 1124" d="M1604.752,985.312a158.193,158.193,0,0,1-17.964,3.209c-.425.06-.847.1-1.254.134a72.88,72.88,0,0,1-18.55,0,19.829,19.829,0,0,1-4.8-1.183l-.791-206.35-.056-8.876-.119-19.61V751.1l.615-2.533,13.98-57.456,3.111,1.828.981.571.507.3,2.283,1.332,2.843,1.675,9.521,5.6,6.518,3.832c.332,5.63.612,10.961.866,16.043.578,11.823.948,22.244,1.168,31.649C1605,812.854,1600.574,907.492,1604.752,985.312Z" transform="translate(-1472.092 -597.821)" fill="#f2f1f2"/>
      <path id="Path_1125" data-name="Path 1125" d="M1578.479,689.347c2.213,2.787,3.358,18.281,3.358,18.281l-8.842.81,6.779,8.253-18.584,33.09,5.641-37.567,5.223-25.684S1577.095,687.6,1578.479,689.347Z" transform="translate(-1472.073 -594.95)" fill="#e1e2e2" opacity="0.42"/>
      <path id="Path_1126" data-name="Path 1126" d="M1578.479,682.187c2.213,2.791,3.358,19.4,3.358,19.4l-8.842.81,6.779,8.234-18.584,33.09,5.641-37.567,5.223-26.784S1577.095,680.441,1578.479,682.187Z" transform="translate(-1472.073 -590.461)" fill="#fff"/>
      <rect id="Rectangle_4667" data-name="Rectangle 4667" width="26.598" height="11.394" transform="translate(97.262 146.01)" fill="#fff"/>
      <rect id="Rectangle_4668" data-name="Rectangle 4668" width="7.484" height="6.413" transform="translate(99.108 148.499)" fill="#d1d3d4"/>
      <rect id="Rectangle_4669" data-name="Rectangle 4669" width="13.424" height="0.936" transform="translate(108.596 148.965)" fill="#d1d3d4"/>
      <rect id="Rectangle_4670" data-name="Rectangle 4670" width="13.424" height="0.933" transform="translate(108.596 151.241)" fill="#d1d3d4"/>
      <rect id="Rectangle_4671" data-name="Rectangle 4671" width="13.424" height="0.936" transform="translate(108.596 153.51)" fill="#d1d3d4"/>
      <rect id="Rectangle_4672" data-name="Rectangle 4672" width="2.806" height="3.858" transform="translate(109.16 141.97)" fill="#f1f2f2"/>
      <path id="Path_1127" data-name="Path 1127" d="M1448.106,811.954l-7.376-4.007c-6.342-6.059-10.819-28.534-11.01-29.474l.955-.373c.045.231,4.552,22.822,10.566,28.665l7.219,3.906Z" transform="translate(-1389.653 -652.356)" fill="#5e5f60"/>
      <path id="Path_1128" data-name="Path 1128" d="M1478.071,865.793a.664.664,0,0,1-.321-.082l-2.354-1.231a1.119,1.119,0,0,1-.519-.679,1.788,1.788,0,0,1-.026-1c.172-.653.746-1.011,1.186-.769l2.354,1.231a1.147,1.147,0,0,1,.522.683,1.808,1.808,0,0,1,.026,1A1.007,1.007,0,0,1,1478.071,865.793Z" transform="translate(-1417.909 -704.926)" fill="#bcbec0"/>
      <path id="Path_1129" data-name="Path 1129" d="M1444.754,811.923l-.354-1.3,7.219-3.906c6.018-5.846,10.525-28.433,10.566-28.665l.959.373c-.19.955-4.675,23.43-11.014,29.474l-.1.075Z" transform="translate(-1398.857 -652.325)" fill="#5e5f60"/>
      <path id="Path_1130" data-name="Path 1130" d="M1439.2,865.793a1,1,0,0,1-.866-.851,1.775,1.775,0,0,1,.026-1,1.157,1.157,0,0,1,.519-.683l2.35-1.231c.463-.243,1.018.116,1.19.769a1.755,1.755,0,0,1-.026,1,1.12,1.12,0,0,1-.518.679l-2.354,1.231A.651.651,0,0,1,1439.2,865.793Z" transform="translate(-1395.015 -704.926)" fill="#bcbec0"/>
      <path id="Path_1131" data-name="Path 1131" d="M1452.664,749.755c-.545,0-.989-.619-.992-1.388,0-4.973-1.668-9.025-4.645-11.417a9.659,9.659,0,0,0-12.312.063c-2.048,1.69-4.477,5.029-4.477,11.331,0,.772-.44,1.4-.985,1.407h0c-.549,0-.989-.623-.992-1.392-.022-5.969,1.91-10.846,5.447-13.76a11.215,11.215,0,0,1,14.282-.078c3.615,2.9,5.623,7.835,5.649,13.827,0,.772-.444,1.4-.989,1.406Z" transform="translate(-1388.738 -623.451)" fill="#231f20"/>
      <path id="Path_1132" data-name="Path 1132" d="M1461.224,694.582l-2.194-.026c0-.235.3-24.206,17.162-24.206V673.2C1461.474,673.2,1461.227,694.366,1461.224,694.582Z" transform="translate(-1408.028 -584.807)" fill="#231f20"/>
      <path id="Path_1133" data-name="Path 1133" d="M1583.216,738.1c-.146-41.324-7.626-56.759-13.872-62.426-3.358-3.041-5.749-2.94-5.865-2.932V670s3.1.3,7.178,3.906c6.649,5.887,14.6,21.8,14.76,64.2Z" transform="translate(-1473.508 -584.587)" fill="#231f20"/>
      <path id="Path_1134" data-name="Path 1134" d="M1615.056,849.514a5.3,5.3,0,1,1-5.3-5.294A5.3,5.3,0,0,1,1615.056,849.514Z" transform="translate(-1499.199 -693.807)" fill="#8d8f90"/>
      <path id="Path_1135" data-name="Path 1135" d="M1615.442,850.436a4.746,4.746,0,1,1-4.75-4.746,4.745,4.745,0,0,1,4.75,4.746Z" transform="translate(-1500.134 -694.729)" fill="#bcbec0"/>
      <path id="Path_1136" data-name="Path 1136" d="M1616.416,852.874a3.3,3.3,0,1,1-3.3-3.294A3.3,3.3,0,0,1,1616.416,852.874Z" transform="translate(-1502.559 -697.167)" fill="#58595b"/>
      <path id="Path_1137" data-name="Path 1137" d="M1614.438,1090.865a158.264,158.264,0,0,1-17.964,3.209c-.425.06-.847.1-1.254.134a72.9,72.9,0,0,1-18.55,0c26.02-54.386,36.623-234.727,36.623-234.727C1614.684,918.406,1610.26,1013.045,1614.438,1090.865Z" transform="translate(-1481.777 -703.374)" fill="#b5b6b6" opacity="0.2"/>
      <path id="Path_1138" data-name="Path 1138" d="M1386.62,1079.392c4.339-80.756-.6-173.828,1.321-238.212.082,1.716,4.973,180.7,10.723,240.6C1395.029,1081.2,1391.026,1080.415,1386.62,1079.392Z" transform="translate(-1362.634 -691.901)" fill="#b5b6b6" opacity="0.11"/>
      <path id="Path_1139" data-name="Path 1139" d="M1426.164,909.7l-7.208,2.239-2.611,1.119s-1.414,1.407.679,1.392c4.7-.03,16.248,4.305,16.248,4.305l10.424-1.492,2.612-6.984s-17.061-6.746-20.427-5.32c-7.727,3.261-10.484,4.671-10.484,4.671s-1.8,1.839.675,2.059Z" transform="translate(-1380.277 -731.76)" fill="#f9bb94"/>
      <path id="Path_1140" data-name="Path 1140" d="M1580.356,825.393c-12.279,11.626-93.646-4.85-93.646-4.85l.157-.929,3.358-20.52,52.076,6.343,12.547-73.757s25.228,62.127,27.3,85.99C1582.464,821.192,1581.957,823.882,1580.356,825.393Z" transform="translate(-1425.381 -623.255)" fill="#f2f1f2"/>
      <path id="Path_1141" data-name="Path 1141" d="M1580.356,969.852c-12.279,11.626-93.646-4.85-93.646-4.85l.157-.929c8.014,1.324,89.7,14.413,95.28-1.962C1582.464,965.651,1581.957,968.341,1580.356,969.852Z" transform="translate(-1425.381 -767.713)" fill="#b5b6b6" opacity="0.32"/>
      <path id="Path_1142" data-name="Path 1142" d="M1426.829,801.526v19.352S1332.5,835.5,1324.445,827.4c-11.1-11.107,25.068-95.754,25.068-95.754l13.957,73.757Z" transform="translate(-1322.33 -623.236)" fill="#f2f1f2"/>
      <path id="Path_1143" data-name="Path 1143" d="M1627.35,909.685l8.883,2.291,3.208,1.19s1.8,1.615-.746,1.724c-5.693.25-14.424,5.164-19.4,6.2-4.1.854-16.845,0-16.845,0v-8.835s20.819-9.838,25-8.32c9.555,3.485,12.976,5.022,12.976,5.022s2.3,2.119-.69,2.537Z" transform="translate(-1497.939 -731.141)" fill="#f9bb94"/>
      <path id="Path_1144" data-name="Path 1144" d="M1472.456,801.526s-62.463,9.842-66.194,8.693c-3.847-1.19-11.152-78.57-11.152-78.57l13.957,73.757Z" transform="translate(-1367.956 -623.236)" fill="#fff" opacity="0.57"/>
      <path id="Path_1145" data-name="Path 1145" d="M1447.657,550.976a5.679,5.679,0,0,0,7.328,3.276h0a5.678,5.678,0,0,0,3.276-7.331l-2.929-7.656a5.675,5.675,0,0,0-7.327-3.276h0a5.679,5.679,0,0,0-3.276,7.331Z" transform="translate(-1398.827 -500.339)" fill="#fcae88"/>
      <path id="Path_1146" data-name="Path 1146" d="M1458.592,552.747s-11.98-5.044-1.892,8.208C1456.7,558.421,1450.395,553.37,1458.592,552.747Z" transform="translate(-1404.034 -510.489)" fill="#b06d4d"/>
      <path id="Path_1147" data-name="Path 1147" d="M1593.927,550.976a5.678,5.678,0,0,1-7.327,3.276h0a5.678,5.678,0,0,1-3.272-7.331l2.925-7.656a5.675,5.675,0,0,1,7.328-3.276h0a5.679,5.679,0,0,1,3.276,7.331Z" transform="translate(-1485.715 -500.339)" fill="#fcae88"/>
      <path id="Path_1148" data-name="Path 1148" d="M1597,552.747s11.984-5.044,1.892,8.208C1598.9,558.421,1605.208,553.37,1597,552.747Z" transform="translate(-1494.522 -510.489)" fill="#b06d4d"/>
      <path id="Path_1149" data-name="Path 1149" d="M1464.887,468.33s-11.4,1.492-13.2,4.477c-3.873,6.4,4.667,29.564,4.667,29.564Z" transform="translate(-1402.793 -458.159)" fill="#a85627"/>
      <path id="Path_1150" data-name="Path 1150" d="M1562.606,489.682s7.2-20.091,4.589-26.225c-2.138-5.074-18.184-12.428-18.184-12.428l-8.48,11.211Z" transform="translate(-1459.121 -447.313)" fill="#a85627"/>
      <path id="Path_1151" data-name="Path 1151" d="M1465.88,491.546a63.6,63.6,0,0,0,1.586,14.226h0c.239,1.071.519,2.112.813,3.13q.373,1.3.817,2.53c4.276,12.312,12.405,20.61,21.74,20.61,9.171,0,17.2-8.033,21.528-20,.373-1.018.709-2.059,1.022-3.138.3-1.011.574-2.052.821-3.115h0a63.158,63.158,0,0,0,1.593-14.226c0-1.824-.078-3.626-.228-5.387v-.164c-1.671-19.729-12.107-34.929-24.729-34.929s-23.132,15.3-24.743,35.127C1465.958,487.942,1465.88,489.732,1465.88,491.546Z" transform="translate(-1412.322 -447.345)" fill="#fcae88"/>
      <path id="Path_1152" data-name="Path 1152" d="M1495.572,504.445v1.888h1.059v-2.082l3.313-.6s.951,4.414,0,5.361c-2.612,2.612-14.745,0-14.745,0v-2.679Z" transform="translate(-1424.434 -480.301)" fill="#a85627"/>
      <path id="Path_1153" data-name="Path 1153" d="M1544.485,502.633V504.5h-1.059v-2.078l-3.313-.6s-.948,4.414,0,5.361c2.612,2.612,14.745,0,14.745,0V504.5Z" transform="translate(-1458.595 -479.154)" fill="#a85627"/>
      <path id="Path_1154" data-name="Path 1154" d="M1516.029,623.794A9.808,9.808,0,0,1,1506.22,614h19.613a9.809,9.809,0,0,1-9.8,9.794Z" transform="translate(-1437.612 -549.48)" fill="#720711"/>
      <path id="Path_1155" data-name="Path 1155" d="M1525.833,614s-1.182,2.436-1.944,2.839c-3.429,1.809-12.04,1.72-15.513,0-.8-.4-2.156-2.839-2.156-2.839Z" transform="translate(-1437.612 -549.48)" fill="#f1f2f2"/>
      <path id="Path_1156" data-name="Path 1156" d="M1556.07,539.765c0,2.291.869,4.149,1.948,4.149s1.948-1.865,1.948-4.149-.873-4.145-1.948-4.145S1556.07,537.474,1556.07,539.765Z" transform="translate(-1468.863 -500.344)" fill="#482b0e"/>
      <path id="Path_1157" data-name="Path 1157" d="M1499.07,539.765c0,2.291.873,4.149,1.947,4.149s1.948-1.865,1.948-4.149-.869-4.145-1.948-4.145S1499.07,537.474,1499.07,539.765Z" transform="translate(-1433.13 -500.344)" fill="#482b0e"/>
      <path id="Path_1158" data-name="Path 1158" d="M1524.922,550.4s1.492,10.529,2.567,17.994c-16.744,3.925-2.865-17.535-2.57-17.987Z" transform="translate(-1445.773 -509.609)" fill="#fcae88"/>
      <path id="Path_1159" data-name="Path 1159" d="M1527.488,568.407c-16.744,3.925-2.865-17.535-2.57-17.987C1524.7,550.841,1515.6,569.489,1527.488,568.407Z" transform="translate(-1445.773 -509.622)" fill="#b06d4d"/>
      <path id="Path_1160" data-name="Path 1160" d="M1513.128,455.829c-.746.534-2.649.918-5.223,1.186a3.307,3.307,0,0,0-.336.034c-3.608.373-8.436.507-13.237.548h-.343c-5.421.041-10.764-.048-14.237-.134h-.347c-2.216-.052-3.585-.1-3.585-.1l-4.056-4.925s-2.936-13.021,12.73-11.193c.78.093,1.552.175,2.328.254l1.071.1c4.477.437,8.8.7,12.8,1.052l.918.082a65.68,65.68,0,0,1,10.678,1.675l.422.119c3.224.922,5.82,2.268,7.555,4.343C1522.649,451.743,1516.907,453.116,1513.128,455.829Z" transform="translate(-1415.874 -441.068)" fill="#a85627"/>
      <path id="Path_1161" data-name="Path 1161" d="M1573.228,450.149a9.361,9.361,0,0,0-.746.582c-3.563,3.067-4.1,8.581-4.041,11.9a3.292,3.292,0,0,0-.336.034c-.048-3.388.481-9.033,4.153-12.193.183-.157.373-.306.563-.444Z" transform="translate(-1476.406 -446.686)" fill="#c47039"/>
      <path id="Path_1162" data-name="Path 1162" d="M1538.606,445.4a9.976,9.976,0,0,0-5.652,3.578c-2.489,3.332-2.239,8.007-1.623,11.282h-.343c-.619-3.339-.847-8.089,1.694-11.488a9.976,9.976,0,0,1,5.007-3.459Z" transform="translate(-1452.884 -443.727)" fill="#c47039"/>
      <path id="Path_1163" data-name="Path 1163" d="M1500.1,442.318a10.409,10.409,0,0,0-6.667,3.813c-2.69,3.6-2.19,8.771-1.492,12.051h-.347c-.716-3.358-1.194-8.581,1.545-12.241a10.366,10.366,0,0,1,5.872-3.731Z" transform="translate(-1428.096 -441.784)" fill="#c47039"/>
      <rect id="Rectangle_4675" data-name="Rectangle 4675" width="6.738" height="6.413" transform="translate(240.511 145.514)" fill="#d1d3d4"/>
      <rect id="Rectangle_4676" data-name="Rectangle 4676" width="10.969" height="0.936" transform="translate(248.879 145.981)" fill="#d1d3d4"/>
      <rect id="Rectangle_4677" data-name="Rectangle 4677" width="10.969" height="0.933" transform="translate(248.879 148.256)" fill="#d1d3d4"/>
      <rect id="Rectangle_4678" data-name="Rectangle 4678" width="10.969" height="0.936" transform="translate(248.879 150.525)" fill="#d1d3d4"/>
    </g>
    <path id="Path_1164" data-name="Path 1164" d="M935.221,585.946c11.073,5.145,26.986-24.885,29.706-27.079,9.062,8.909,10.073,31.261,25.5,24.5,39.35-17.252,6.134-54.143,7.835-77.1.705-9.533-.672-17.535-3.567-23.878-.2-.429-.4-.854-.608-1.269a31.508,31.508,0,0,0-4.283-6.365c-.127-.153-.269-.306-.407-.459a27.38,27.38,0,0,0-6.193-5.082c-.276-.164-.556-.332-.84-.489a28.809,28.809,0,0,0-11.864-3.455l-2.179-.1a29.248,29.248,0,0,0-10.275,1.574c-.313.108-.616.22-.925.34a27.467,27.467,0,0,0-8.477,5.264c-.153.138-.295.276-.448.418a29.273,29.273,0,0,0-3.765,4.309c-.269.373-.534.746-.787,1.149a41.445,41.445,0,0,0-5.776,14.61v.056a.64.64,0,0,1-.019.089,56.135,56.135,0,0,0-.944,7.283c-.071,1-.116,2.018-.138,3.048a25.207,25.207,0,0,1-.534,4.57C931.908,529.095,875.373,558.147,935.221,585.946Z" transform="translate(-20151.865 -1848.613)" fill="#844b00"/>
    <path id="Path_1165" data-name="Path 1165" d="M1091.125,1277.141l-1.492,14.136-3.321,31.34-7.982,87.867.709,13.637-9.514,1.4-3.265-1.4s-5.312-63.056-4.312-104.38c.283-11.566,1.183-22.076,3.026-30.049h0c1.369-5.936,3.265-10.447,5.817-12.961C1074.422,1273.186,1091.125,1277.141,1091.125,1277.141Z" transform="translate(-20248.352 -2356.467)" fill="#fcae88"/>
    <path id="Path_1169" data-name="Path 1169" d="M1003.228,1277.137l-1.276,12.062-3.138,29.6-9.291,99.346v5.5l-6.94.373-2.2-.373-2.111.373s-5.66-66.474-4.093-108.159c.41-11.032,1.451-20.912,3.414-28.243,1.321-4.925,3.059-8.7,5.305-10.9C986.528,1273.182,1003.228,1277.137,1003.228,1277.137Z" transform="translate(-20193.236 -2356.462)" fill="#fcae88"/>
    <path id="Path_1173" data-name="Path 1173" d="M978.072,1308.47l24.359,1.556-3.138,29.6-24.624-2.914C975.069,1325.681,976.11,1315.8,978.072,1308.47Z" transform="translate(-20193.715 -2377.289)" fill="#f58d86" opacity="0.6"/>
    <path id="Path_1174" data-name="Path 1174" d="M1089.836,1315.536l-3.321,31.34L1062.16,1344c.283-11.566,1.183-22.076,3.026-30.049h0Z" transform="translate(-20248.563 -2380.725)" fill="#f58d86" opacity="0.6"/>
    <path id="Path_1175" data-name="Path 1175" d="M1015.725,1182.96H939.614c-3.153-11.454-8.866-56.567-7.556-72.568,2.306-28.169,9.443-58.982,14.114-76.958,2.477-9.533,4.261-15.453,4.261-15.453h53.016s1.063,3.541,2.69,9.544c.541,2,1.149,4.272,1.8,6.779,1.157,4.507,2.462,9.767,3.8,15.558,4.809,20.763,8.259,48.207,8.964,72.036C1021.062,1133.515,1018.105,1174.326,1015.725,1182.96Z" transform="translate(-20167.254 -2195.179)" fill="#4e4e4e"/>
    <path id="Path_1176" data-name="Path 1176" d="M1020.8,1147.864l-88.378-11.506c2.306-28.168,9.443-58.982,14.114-76.958l61.765.869c1.156,4.507,2.462,9.768,3.8,15.558C1016.907,1096.59,1020.093,1124.034,1020.8,1147.864Z" transform="translate(-20167.602 -2221.145)" fill="#3b3b3b"/>
    <path id="Path_1177" data-name="Path 1177" d="M1016.431,916.2H989.671l-6.563-12.23-2.862,12.181-38.32-.205H922.972c-13.493-99.138,44.377-113.759,10.646-182.155-4.85-9.82,28.4-23.93,28.4-23.93s39.357,4.268,44.35,13.11c1.559,2.765,10.447,35.313,11.566,55.632.373,6.615-1.653,16.752-2.9,19.807C1006.587,819.228,1016.431,916.2,1016.431,916.2Z" transform="translate(-20160 -2002.016)" fill="#f1f2f2"/>
    <path id="Path_1178" data-name="Path 1178" d="M758.17,273.4l6.384,11.857,11.995,22.277,1.187-21.072.645-11.432Z" transform="translate(-19956.143 -1565.549)" fill="#fcae88"/>
    <path id="Path_1179" data-name="Path 1179" d="M779.041,234.25l-.515,12.514-.172,4.141L758.17,248.86l3.1-11.394.392-1.433Z" transform="translate(-19956.143 -1541.005)" fill="#fcae88"/>
    <path id="Path_1180" data-name="Path 1180" d="M781.918,234.25l-.862,19.755-18.3-11.428,1.783-6.544Z" transform="translate(-19959.021 -1541.005)" fill="#f58d86" opacity="0.6"/>
    <path id="Path_1181" data-name="Path 1181" d="M982.314,529.689a8.55,8.55,0,0,0,.243,1.865,7.03,7.03,0,0,0,3.615,4.891,3.731,3.731,0,0,0,1.787.321c2.694,16.211,11.387,27.982,27.516,27.885a25.865,25.865,0,0,0,12.812-3.2c10.652-6.044,15.192-20.039,15.088-36.287a53.83,53.83,0,0,0-.642-8c-2.772-17.841-14.177-31.2-27.78-31.1-15.163.093-27.407,16.879-27.889,37.817a3.4,3.4,0,0,0-1.492.075,2.571,2.571,0,0,0-.5.183C983.314,524.909,982.239,527.14,982.314,529.689Z" transform="translate(-20198.506 -1861.714)" fill="#fcae88"/>
    <path id="Path_1182" data-name="Path 1182" d="M1099,565.869c4.686-2.865,7.417-2.832,12.029.164,0-1.339.026-2.011.041-3.358-4.608-2.985-7.335-3.03-12.025-.16C1099.045,563.862,1099.03,564.53,1099,565.869Z" transform="translate(-20271.656 -1908.318)" fill="#844b00"/>
    <path id="Path_1183" data-name="Path 1183" d="M1041.84,565.105c4.69-2.873,7.421-2.836,12.029.16,0-1.336.026-2.007.045-3.358-4.611-2.985-7.339-3.026-12.029-.16C1041.87,563.1,1041.862,563.766,1041.84,565.105Z" transform="translate(-20235.822 -1907.838)" fill="#844b00"/>
    <path id="Path_1184" data-name="Path 1184" d="M997.46,622c2.686,16.215,11.379,27.982,27.512,27.885a25.824,25.824,0,0,0,12.812-3.194c.631-.7,2.119-1.119,2.772-1.865C1040.127,645.083,1010.257,662.917,997.46,622Z" transform="translate(-20208 -1946.936)" fill="#f58d86" opacity="0.6"/>
    <path id="Path_1185" data-name="Path 1185" d="M1040.094,483.942s-26.064,27.9-45.144,31C993.95,511.126,1001.565,447,1040.094,483.942Z" transform="translate(-20206.375 -1853.224)" fill="#844b00"/>
    <path id="Path_1186" data-name="Path 1186" d="M1110.57,503.21s7.488,24.915,14.106,32.925C1124.6,533.467,1123.173,487.226,1110.57,503.21Z" transform="translate(-20278.91 -1870.365)" fill="#844b00"/>
    <path id="Path_1187" data-name="Path 1187" d="M1110.3,589.7c0,1.892.873,3.432,1.989,3.444s2.037-1.515,2.056-3.4-.873-3.429-1.989-3.44S1110.319,587.811,1110.3,589.7Z" transform="translate(-20278.744 -1924.555)" fill="#633800"/>
    <path id="Path_1188" data-name="Path 1188" d="M1050.9,589.129c0,1.892.873,3.429,1.989,3.444s2.037-1.515,2.052-3.4-.873-3.432-1.989-3.44S1050.937,587.241,1050.9,589.129Z" transform="translate(-20241.506 -1924.198)" fill="#633800"/>
    <path id="Path_1189" data-name="Path 1189" d="M1078.52,589.42l-2.85,14.062c13.01,3.865,3.063-13.685,2.858-14.051Z" transform="translate(-20257.031 -1926.512)" fill="#fcae88"/>
    <path id="Path_1190" data-name="Path 1190" d="M1075.67,603.5c13.01,3.865,3.063-13.685,2.858-14.051C1078.67,589.789,1084.982,604.9,1075.67,603.5Z" transform="translate(-20257.031 -1926.53)" fill="#f58d86" opacity="0.6"/>
    <path id="Path_1191" data-name="Path 1191" d="M1073.97,645.731s-6.716,14.692-18.55-.821A47.288,47.288,0,0,0,1073.97,645.731Z" transform="translate(-20244.338 -1961.299)" fill="#f1f2f2"/>
    <rect id="Rectangle_4673" data-name="Rectangle 4673" width="23.658" height="10.29" transform="translate(-19209.799 -1248.99)" fill="#fff"/>
    <path id="Path_1192" data-name="Path 1192" d="M1048.25,741.66l11.995,22.277,1.186-21.072C1058.7,744.969,1054.391,746.081,1048.25,741.66Z" transform="translate(-20239.844 -2021.952)" fill="#d79600"/>
    <path id="Path_1196" data-name="Path 1196" d="M1130.846,908.495a.993.993,0,0,0,.925-.78,1.8,1.8,0,0,0,.048-.992,1.156,1.156,0,0,0-.466-.716l-2.239-1.4c-.444-.276-1.019.037-1.239.675a1.768,1.768,0,0,0-.048.992,1.119,1.119,0,0,0,.466.716l2.239,1.4A.652.652,0,0,0,1130.846,908.495Z" transform="translate(-20289.699 -2124.044)" fill="#bcbec0"/>
    <path id="Path_1203" data-name="Path 1203" d="M1103.92,946s2.642-8.536,4.1-7.76c2,1.049,1.239,3.869,1.239,3.869l-2.47,4.876Z" transform="translate(-20274.744 -2145.156)" fill="#fcae88"/>
    <path id="Path_1204" data-name="Path 1204" d="M1284.355,963.25s2.037-8.7.373-8.775c-2.238-.112-3.022,2.712-3.022,2.712l-.336,5.455Z" transform="translate(-20385.984 -2155.365)" fill="#fcae88"/>
    <path id="Path_1205" data-name="Path 1205" d="M833.12,497.6l61.109,6.149,7.921-89.184-61.105-6.149Z" transform="translate(-20003.129 -1650.194)" fill="#414042"/>
    <rect id="Rectangle_4674" data-name="Rectangle 4674" width="6.156" height="23.389" transform="translate(-19141.623 -1235.172) rotate(-84.08)" fill="#bcbec0"/>
    <path id="Path_1206" data-name="Path 1206" d="M1043.83,957.411l9.148,2.265s9.958-10.215,10.738-10.585c2.641-1.246,11.629,1.119,11.629,1.119l7.6,9.268a9.4,9.4,0,0,1-2.276-.112c-1.735-.683-5.723-4.791-5.723-4.791a36.154,36.154,0,0,1,2.212,4.417,57.7,57.7,0,0,1,.974,7.309,5.548,5.548,0,0,1-1.328-.616c-1.9-1.907-4.518-9.779-4.518-9.779s-11.372,10.689-16.211,12.23c-2.735.869-11.469-.343-11.469-.343Z" transform="translate(-20237.07 -2151.764)" fill="#fcae88"/>
    <path id="Path_1207" data-name="Path 1207" d="M1112.76,968.79l2.571,3.966,2.451,5.007a5.776,5.776,0,0,1-1.578-.287c-1.746-1.086-4.914-6.6-4.914-6.6Z" transform="translate(-20279.361 -2164.341)" fill="#fcae88"/>
    <path id="Path_1208" data-name="Path 1208" d="M1099.361,972.66l.922.925h0l5.4,5.414a5.337,5.337,0,0,1-1.205-.052c-1.343-.474-4.324-3.037-5.126-3.731l-.716.631-1.884,2.317-.5-1.716Z" transform="translate(-20269.936 -2166.767)" fill="#fcae88"/>
    <path id="Path_1209" data-name="Path 1209" d="M1267.075,968.654a4.817,4.817,0,0,1,1.4,1.992,6.525,6.525,0,0,1,0,3.048c-.056.824.925,2.4.746,3.212-.123.593-1.336,1.354-1.463,1.948-.168.81,1.146,2.485.746,3.212-1.019,1.888-6.936,2.959-6.936,2.959s-7.917,1.541-9.443-.261c-.257-.3.213-1.563.213-1.563s-3.645.347-4.309-.511a1.517,1.517,0,0,1,.19-1.407c.746-.746,4.134-.511,4.134-.511s-3.358-.067-3.94-.9a1.631,1.631,0,0,1,.194-1.41c1.015-1.168,5.97-1.69,5.97-1.69s-2.287.089-2.813-.373c-.41-.373-.783-.836-.41-1.242.992-1.078,8.756-3.011,8.756-3.011l.522-5.88Z" transform="translate(-20365.018 -2162.761)" fill="#fcae88"/>
    <path id="Path_1210" data-name="Path 1210" d="M913.515,743.743c-20.147,8.794-37.309,85.438-32.75,90.132,10.447,10.715,64.623,6.716,64.623,6.716l.948-13.431-36.22-9.417S935.233,734.277,913.515,743.743Z" transform="translate(-20134.381 -2022.789)" fill="#f9fafa"/>
    <rect id="Rectangle_4679" data-name="Rectangle 4679" width="6.365" height="6.413" transform="translate(-19207.74 -1246.926)" fill="#d1d3d4"/>
    <rect id="Rectangle_4680" data-name="Rectangle 4680" width="12.111" height="0.936" transform="translate(-19199.742 -1246.46)" fill="#d1d3d4"/>
    <rect id="Rectangle_4681" data-name="Rectangle 4681" width="12.111" height="0.933" transform="translate(-19199.742 -1244.184)" fill="#d1d3d4"/>
    <rect id="Rectangle_4682" data-name="Rectangle 4682" width="12.111" height="0.936" transform="translate(-19199.742 -1241.916)" fill="#d1d3d4"/>
    <path id="Path_1086" data-name="Path 1086" d="M2011.871,777.353c-.034.187-.071.373-.1.56l-.291,1.492-.157.795-2.149-.425.19-.97c.093-.485.187-.97.28-1.448l.1-.548c6.917-36.809,3.3-52.912-1.321-59.948.963.451,2.731,1.295,3.432,1.709C2015.848,727.206,2018.12,744.126,2011.871,777.353Z" transform="translate(-20841.779 -2006.405)" fill="#231f20"/>
  </g>
</svg>
