<svg xmlns="http://www.w3.org/2000/svg" width="123" height="56.51" viewBox="0 0 123 56.51">
  <g id="Group_4949" data-name="Group 4949" transform="translate(-641 -865)">
    <rect id="Rectangle_4596" data-name="Rectangle 4596" width="123" height="56.51" transform="translate(641 865)" fill="#fff"/>
    <g id="Group_4907" data-name="Group 4907" transform="translate(-68.002 -6)">
      <g id="Layer_2" data-name="Layer 2" transform="translate(710.002 882.5)">
        <g id="Layer_1" data-name="Layer 1" transform="translate(-0.001 0)">
          <path id="Path_895" data-name="Path 895" d="M15.537,36.5l-.03-1.511a.318.318,0,0,0-.161-.272,1.108,1.108,0,0,1-.038-1.948.314.314,0,0,0,.161-.28c-.047-2.547-.1-4.575-.2-6.163-.055-.9-.123-1.583-.2-2.122a2.547,2.547,0,0,0-.39-1.2,1.031,1.031,0,0,0-.764-.395,1.188,1.188,0,0,0-.764.361,1.15,1.15,0,0,1-.777.31,1.014,1.014,0,0,1-.709-.28.968.968,0,0,1-.3-.7v-.127a.323.323,0,0,0-.127-.3.352.352,0,0,0-.2-.064.318.318,0,0,0-.11,0,1.12,1.12,0,0,1-.365.064,1.061,1.061,0,0,1-.806-.373.972.972,0,0,1-.221-.62.985.985,0,0,1,.127-.475.335.335,0,0,0,0-.323.331.331,0,0,0-.28-.161,1.036,1.036,0,0,1-.879-.531.9.9,0,0,1-.119-.454.993.993,0,0,1,.293-.7.323.323,0,0,0,.089-.293.335.335,0,0,0-.2-.233.976.976,0,0,1-.191-1.757.318.318,0,0,0-.021-.552.993.993,0,0,1-.531-.849.972.972,0,0,1,.424-.806.323.323,0,0,0,.14-.238.331.331,0,0,0-.1-.259,1,1,0,0,1-.314-.722.925.925,0,0,1,.1-.424,1.04,1.04,0,0,1,.934-.552.335.335,0,0,0,.293-.174.323.323,0,0,0-.03-.344,1.01,1.01,0,0,1-.2-.586.9.9,0,0,1,.106-.424,1.019,1.019,0,0,1,.768-.543.34.34,0,0,0,.238-.106.31.31,0,0,0,.055-.242.318.318,0,0,0-.323-.272H9.867a1.74,1.74,0,0,0-.2.042L6.981,1.986A1.808,1.808,0,0,1,7.851.815a1.766,1.766,0,0,1,.9-.25,1.384,1.384,0,0,1,.726.2l.072.424C9.969,3.862,11,10.131,11.208,11.1a1.825,1.825,0,0,1,.047.369,1.273,1.273,0,0,1-.3.717l-.055.093A7.852,7.852,0,0,0,9.99,14.32a6.273,6.273,0,0,0-.259,1.85,6.464,6.464,0,0,0,2.241,5.2,2.648,2.648,0,0,0,1.447.531,1.384,1.384,0,0,0,1.2-.683,2.912,2.912,0,0,0,.365-1.545v-.187c0-.424,0-1-.03-1.676s0-1.443-.03-2.182a13.963,13.963,0,0,0-.318-3.175l-.025-.059a.509.509,0,0,0-.038-.089v-.021a2.4,2.4,0,0,0-1.477-1.053v-.373a6.285,6.285,0,0,1,.064-.874A3.887,3.887,0,0,1,15.932,9h.034a4.83,4.83,0,0,1,1.969.4.373.373,0,0,0,.1.047,2.411,2.411,0,0,1,.73.535,6.192,6.192,0,0,1,.064.874v.373a2.4,2.4,0,0,0-1.477,1.053.547.547,0,0,0-.051.11.225.225,0,0,0,0,.051,13.059,13.059,0,0,0-.318,3.183c0,.738-.025,1.507-.034,2.186s0,1.273-.025,1.672v.187a2.9,2.9,0,0,0,.3,1.545,1.379,1.379,0,0,0,1.193.683,2.7,2.7,0,0,0,1.447-.531,6.467,6.467,0,0,0,2.245-5.2,6.29,6.29,0,0,0-.263-1.85,7.928,7.928,0,0,0-.908-2.037l-.064-.1a1.227,1.227,0,0,1-.289-.722,1.944,1.944,0,0,1,.047-.365c.225-1.027,1.354-8,1.723-10.288V.751a1.392,1.392,0,0,1,.73-.2,1.787,1.787,0,0,1,.9.25,1.808,1.808,0,0,1,.849,1.171L22.171,8.913a1.74,1.74,0,0,0-.2-.042h-.051a.327.327,0,0,0-.327.276.323.323,0,0,0,.28.365,1.036,1.036,0,0,1,.768.548.955.955,0,0,1,.106.424.985.985,0,0,1-.2.586l-.025.038a.348.348,0,0,0-.038.166v.064a.335.335,0,0,0,.272.216h.076a1.036,1.036,0,0,1,.9.556.879.879,0,0,1,.106.424.985.985,0,0,1-.314.717.318.318,0,0,0-.1.263.344.344,0,0,0,.14.238.968.968,0,0,1,.424.789.993.993,0,0,1-.531.849.327.327,0,0,0-.174.276.318.318,0,0,0,.153.28,1.006,1.006,0,0,1,.467.849.993.993,0,0,1-.654.925.314.314,0,0,0-.2.233.331.331,0,0,0,.085.293.98.98,0,0,1,.221,1.2,1.053,1.053,0,0,1-.887.531.331.331,0,0,0-.276.161.327.327,0,0,0,0,.318.955.955,0,0,1-.11,1.1,1.044,1.044,0,0,1-.806.369,1.078,1.078,0,0,1-.365-.059.318.318,0,0,0-.11-.021.31.31,0,0,0-.2.072.306.306,0,0,0-.127.289v.132a.968.968,0,0,1-.3.7,1.023,1.023,0,0,1-.709.28,1.129,1.129,0,0,1-.768-.3,1.176,1.176,0,0,0-.772-.365,1.019,1.019,0,0,0-.764.386,2.589,2.589,0,0,0-.39,1.2,80.2,80.2,0,0,0-.4,8.263.323.323,0,0,0,.161.284,1.116,1.116,0,0,1,.569.968,1.129,1.129,0,0,1-.6.98.31.31,0,0,0-.17.276l-.013,1.49Zm3.985-7.954a1.354,1.354,0,0,1-.654-.157l-.2-4.622a1.791,1.791,0,0,0,.806.2h.042l.9,4.219a1.176,1.176,0,0,1-.789.357Zm-7.215,0h-.115a1.159,1.159,0,0,1-.789-.361l.9-4.219h.059a1.821,1.821,0,0,0,.806-.2l-.208,4.618A1.4,1.4,0,0,1,12.308,28.546Zm9.261-.289a1.188,1.188,0,0,1-.492-.1l-.913-4.342a1.545,1.545,0,0,0,.467-.31,1.63,1.63,0,0,0,.115-.123l1.944,4.325a1.218,1.218,0,0,1-.552.424,1.4,1.4,0,0,1-.556.127Zm-11.328,0a1.384,1.384,0,0,1-.552-.115,1.218,1.218,0,0,1-.552-.424l1.944-4.325.115.123a1.7,1.7,0,0,0,.463.314l-.913,4.325a1.163,1.163,0,0,1-.492.1Zm-1.876-.887a1.6,1.6,0,0,1-.917-.306,1.485,1.485,0,0,1-.458-.522l2.856-4.13a1.7,1.7,0,0,0,.709.161h.157L8.59,27.341a1.7,1.7,0,0,1-.212.03Zm15.08,0a1.651,1.651,0,0,1-.208,0l-2.122-4.758v-.03a1,1,0,0,0,.157,0,1.7,1.7,0,0,0,.713-.161l2.856,4.13a1.485,1.485,0,0,1-.458.522,1.6,1.6,0,0,1-.925.3Zm-.929-5.335a.425.425,0,0,0,.072-.076,1.613,1.613,0,0,0,.284-.505l3.888,3.705a1.409,1.409,0,0,1-.361.569,1.545,1.545,0,0,1-1.019.45ZM6.459,26.178a1.545,1.545,0,0,1-1.019-.45,1.409,1.409,0,0,1-.348-.569L8.98,21.454a1.7,1.7,0,0,0,.28.505l.076.076Zm16.459-5.585a.123.123,0,0,0,0-.038,1.7,1.7,0,0,0,.666-.378l4.881,3.166a1.371,1.371,0,0,1-.238.7,1.507,1.507,0,0,1-.989.654ZM4.6,24.714a1.477,1.477,0,0,1-.985-.654,1.337,1.337,0,0,1-.221-.717L8.284,20.16a1.7,1.7,0,0,0,.666.378.123.123,0,0,1,0,.038Zm-1.583-1.9A1.49,1.49,0,0,1,2.2,22.07a1.273,1.273,0,0,1-.076-1l5.641-2.317a1.545,1.545,0,0,0-.021.238,1.566,1.566,0,0,0,.144.662Zm20.949-3.17a1.558,1.558,0,0,0,.14-.654,1.439,1.439,0,0,0,0-.233l5.6,2.309a1.273,1.273,0,0,1-.068,1,1.5,1.5,0,0,1-.819.755Zm.081-1.609a1.63,1.63,0,0,0,.424-.586l6.345,1.184a1.273,1.273,0,0,1,.1.925,1.447,1.447,0,0,1-.785.976ZM1.7,20.538a1.443,1.443,0,0,1-.777-.976,1.273,1.273,0,0,1,.1-.929l6.366-1.176a1.651,1.651,0,0,0,.424.581ZM.848,18.012a1.7,1.7,0,0,1-.713-1.2A1.5,1.5,0,0,1,.424,15.7l7.062.344a1.583,1.583,0,0,0-.221.781ZM24.616,16.82a1.532,1.532,0,0,0-.225-.781l7.016-.335a1.519,1.519,0,0,1,.28,1.12,1.7,1.7,0,0,1-.7,1.2ZM.424,15.046A1.7,1.7,0,0,1,0,13.883a1.5,1.5,0,0,1,.509-1.15l6.659,1.948a1.617,1.617,0,0,0,.212.726Zm24.018.344a1.583,1.583,0,0,0,.212-.743l6.676-1.914a1.507,1.507,0,0,1,.5,1.15,1.7,1.7,0,0,1-.424,1.163ZM.572,12.058A1.647,1.647,0,0,1,.39,10.666a1.485,1.485,0,0,1,.755-.9l6.464,3.743a1.727,1.727,0,0,0-.323.5Zm23.975,1.948a1.634,1.634,0,0,0-.318-.514l6.464-3.731a1.485,1.485,0,0,1,.755.917,1.63,1.63,0,0,1-.187,1.392Zm-.042-1.439a1.587,1.587,0,0,0-.174-.722.365.365,0,0,0-.042-.068l5.046-4.826a1.5,1.5,0,0,1,1.006.849,1.651,1.651,0,0,1,0,1.388l-5.84,3.4ZM1.493,9.2a1.638,1.638,0,0,1,0-1.388A1.5,1.5,0,0,1,2.5,6.96L7.55,11.778a.365.365,0,0,0-.042.068,1.575,1.575,0,0,0-.174.722ZM2.911,6.438a1.626,1.626,0,0,1,.182-1.307,1.5,1.5,0,0,1,1.1-.751l4.265,6.655a1.575,1.575,0,0,0-.471.25ZM23.852,11.29a1.8,1.8,0,0,0-.471-.255l4.244-6.659a1.5,1.5,0,0,1,1.1.751,1.63,1.63,0,0,1,.183,1.3ZM4.668,3.883a1.736,1.736,0,0,1,.424-1.023A1.549,1.549,0,0,1,6.251,2.3h.174L9.1,9.193a1.638,1.638,0,0,0-.488.569,1.608,1.608,0,0,0-.076.178ZM23.3,9.94a1.608,1.608,0,0,0-.076-.178,1.7,1.7,0,0,0-.467-.556l2.674-6.893a1.273,1.273,0,0,1,.178,0,1.549,1.549,0,0,1,1.154.56A1.7,1.7,0,0,1,27.192,3.9ZM13.721,8.76a2.869,2.869,0,0,1-.666-1.842,3.442,3.442,0,0,1,0-.365A4.019,4.019,0,0,1,14.09,4.669l.1-.127A3.339,3.339,0,0,0,15.1,2.7a1.6,1.6,0,0,0,0-.216,5.029,5.029,0,0,1-.055-.713A2.623,2.623,0,0,1,15.622,0V.153a5.377,5.377,0,0,0,.9,2.623c-.2.3-.424.586-.666.887s-.378.484-.577.734a4.879,4.879,0,0,0-1.171,2.827,3.434,3.434,0,0,0,.272,1.3,4.859,4.859,0,0,0-.658.233ZM18,8.713a5.517,5.517,0,0,0-2.08-.386,5.815,5.815,0,0,0-.849.064,2.827,2.827,0,0,1-.289-1.176,4.37,4.37,0,0,1,1.053-2.453c.17-.238.357-.48.539-.713l.178-.229c.149-.2.3-.395.446-.594l.238-.357c.1-.153.187-.3.272-.454a4.974,4.974,0,0,0,.318-.632,5.14,5.14,0,0,1,.136,1.159,3.867,3.867,0,0,1,0,.395,2.636,2.636,0,0,1-.136.628,3.467,3.467,0,0,1-.161.424,5.28,5.28,0,0,1-.263.531c-.072.14-.153.272-.233.4s-.149.246-.225.365a2.9,2.9,0,0,0-.569,1.3.815.815,0,0,0,0,.174c.055.216.132.505.492.548a.471.471,0,0,0,.424-.289.985.985,0,0,0,.085-.424,1.439,1.439,0,0,0-.136-.594c.127-.229.3-.5.467-.76.093-.157.2-.335.3-.531a4.087,4.087,0,0,1,.577,1.931A2.674,2.674,0,0,1,18,8.713ZM13.776,4A5.475,5.475,0,0,0,13.9,2.869a4.388,4.388,0,0,0-.17-1.214,2.173,2.173,0,0,1,.7,1.2A2.9,2.9,0,0,1,13.776,4Zm31.789.84v9.032H43.214V4.843H40.145V2.873h8.488V4.843Zm13.7,5.029c0,2.547-1.7,4.214-4.6,4.214s-4.592-1.651-4.592-4.214v-7h2.356V9.664a2.246,2.246,0,1,0,4.49,0V2.873h2.351Zm6.328-7c2.547,0,4.244,1.273,4.244,3.62a3.217,3.217,0,0,1-2.092,3.132l2.309,4.244H67.567l-1.94-3.854H64.04V13.87H61.731v-11ZM64.04,4.843V8.128h1.7a1.546,1.546,0,0,0,1.757-1.634c0-1.116-.751-1.651-1.821-1.651ZM80.983,9.872c0,2.547-1.7,4.214-4.6,4.214s-4.6-1.651-4.6-4.214v-7h2.351V9.664a2.246,2.246,0,1,0,4.49,0V2.873h2.356Zm11.54,4.168L86.466,8.251l-.734-.611v6.235h-2.3V2.7h.089l6.035,5.785.7.624V2.873h2.322V14.04ZM42.28,17.664,44.8,22.172l2.521-4.507h2.661l-4,6.736v4.265H43.625V24.4L39.64,17.664Zm8.756,11v-11h2.356v9.027h4.244v1.974Zm8.28,0v-11h2.356v11ZM69.341,17.452a5.713,5.713,0,1,1-5.759,5.713,5.636,5.636,0,0,1,5.759-5.713Zm0,9.274a3.41,3.41,0,0,0,3.4-3.561,3.4,3.4,0,1,0-6.791,0,3.428,3.428,0,0,0,3.4,3.574ZM79.366,24.9v3.76H77.014v-11h3.574c2.547,0,4.244,1.273,4.244,3.62s-1.7,3.62-4.244,3.62Zm0-5.271v3.285h1.345a1.533,1.533,0,0,0,1.723-1.634,1.58,1.58,0,0,0-1.787-1.651Zm7.177,9.032v-11H88.9v11Zm4.465-.412V25.991a7.215,7.215,0,0,0,2.763.794,3.985,3.985,0,0,0,.976-.059c.849-.123,1.333-.424,1.333-.98,0-.734-.658-1.116-2.173-1.664-1.923-.7-3.052-1.511-3.052-3.421s1.617-3.209,3.985-3.209A7.572,7.572,0,0,1,97.713,18v2.169a5.632,5.632,0,0,0-2.691-.671c-1.129,0-1.863.424-1.863,1.146,0,.641.594,1.087,2.092,1.651,1.927.747,3.119,1.558,3.119,3.4,0,1.986-1.5,3.179-4.1,3.179a8.641,8.641,0,0,1-3.268-.615Zm13.581-8.62v9.032h-2.356V19.634H99.165V17.664h8.488v1.969Zm9.715-2.182a5.713,5.713,0,1,1-5.759,5.713,5.636,5.636,0,0,1,5.759-5.713Zm0,9.274a3.41,3.41,0,0,0,3.4-3.561,3.4,3.4,0,1,0-6.791,0,3.428,3.428,0,0,0,3.4,3.574Z" transform="translate(0.001 0)"/>
        </g>
      </g>
    </g>
  </g>
</svg>
