<svg xmlns="http://www.w3.org/2000/svg" width="331.353" height="423.015" viewBox="0 0 331.353 423.015">
  <g id="Group_6018" data-name="Group 6018" transform="translate(-750.98 -102.484)">
    <g id="Group_6017" data-name="Group 6017" transform="translate(-20)">
      <path id="shadow" d="M286,1727.1c0,8.5,74.175,15.388,165.677,15.388s165.677-6.889,165.677-15.388-74.176-15.388-165.677-15.388S286,1718.6,286,1727.1Z" transform="translate(484.98 -1216.986)" fill="#e8e9ec"/>
      <g id="Group_6016" data-name="Group 6016" transform="translate(781.641 103.543)">
        <path id="Path_1051" data-name="Path 1051" d="M1845.418,1094l-.086,3.83s3.683,6.45,3.46,8.806c-.3,3.15-6.75,10.7-6.75,10.7l-8.052-14.362,6.249-2.078-2.79-6.875Z" transform="translate(-1749.764 -894.36)" fill="#fcae88"/>
        <path id="Path_1052" data-name="Path 1052" d="M1842.987,745a602.97,602.97,0,0,1,9.122,68.619c.83,11.49-1.6,30.827,2.16,45.617H1838.95Z" transform="translate(-1756.814 -656.746)" fill="#d4dbdb"/>
        <path id="Path_1053" data-name="Path 1053" d="M1996.223,610.8c22.146,0,27.463-18.383,20.333-45.767q-1.079-4.149-2.531-8.55c-3.9-11.847,4.181-30.052,10.153-31.881-3.192-5.493,3.447-15.546,3.447-15.546s-51.636-33.578-44.975,40.689a70.451,70.451,0,0,1,.2,9.648C1981.159,594.288,1954.55,610.8,1996.223,610.8Z" transform="translate(-1972.93 -490.952)" fill="#6b2310"/>
        <path id="Path_1054" data-name="Path 1054" d="M2021.606,734.337c22.146,0,27.463-18.383,20.333-45.767-12.249,5.02-24.023.977-33.709-5.639C2006.542,717.823,1979.934,734.337,2021.606,734.337Z" transform="translate(-1998.311 -614.486)" fill="#501a0c"/>
        <path id="Path_1055" data-name="Path 1055" d="M2029.035,514.764c-1.308,3.555-.412,7.159,2,8.049s5.426-1.277,6.741-4.829.415-7.162-2-8.049S2030.347,511.209,2029.035,514.764Z" transform="translate(-2001.401 -496.568)" fill="#ffb406"/>
        <path id="Path_1056" data-name="Path 1056" d="M1895.371,1688.213s-10.532-5.269-10.74-15.533h-10.947a63.331,63.331,0,0,1,.172,6.594c-.195,1.168-1.277,5.473-1.277,5.473S1891.407,1701.42,1895.371,1688.213Z" transform="translate(-1808.647 -1288.351)" fill="#fcae88"/>
        <path id="Path_1057" data-name="Path 1057" d="M1866.549,1710.179l-2.234,3.137s-11.1-5.627-20.155-7.615c-2.595-.568,0,12.54,0,12.54h6.712v-3.134l8.959,3.134h17.021S1878.351,1708.836,1866.549,1710.179Z" transform="translate(-1780.75 -1310.821)" fill="#414042"/>
        <path id="Path_1059" data-name="Path 1059" d="M2033.183,1689.029V1673.17h-10.305s-4.219,12.926-2.793,15.546C2021.652,1691.592,2033.183,1689.029,2033.183,1689.029Z" transform="translate(-1993.444 -1288.684)" fill="#fcae88"/>
        <path id="Path_1060" data-name="Path 1060" d="M2015.212,1705.57v5.205a13.46,13.46,0,0,1,13.086,0v-5.205s4.87,10.915,0,12.594h-13.086C2010.342,1716.485,2015.212,1705.57,2015.212,1705.57Z" transform="translate(-1988.571 -1310.744)" fill="#414042"/>
        <path id="Path_1061" data-name="Path 1061" d="M1581.13,708.8l.957,49.575,2.33,120.431h14.962l12.855-125.042,2.48-24.122.865,23.608,4.592,125.556h15.958l10.427-130.3,2.924-36.547.214-3.163Z" transform="translate(-1557.078 -492.795)" fill="#676668"/>
        <path id="Path_1062" data-name="Path 1062" d="M1581.13,708.8l.957,49.575,30.147-4.612,2.48-24.122.865,23.608,4.608-.705.8-5.47,3.479,4.816,22.092-3.38,2.924-36.547.214-3.163Z" transform="translate(-1557.078 -492.795)" fill="#545355"/>
        <path id="Path_1063" data-name="Path 1063" d="M1841.532,886.093l14.767.08,10.079.064,18.23.112,2.448-10.42,5.614,10.462,30.036.137s-11.1-83.1-3.846-100.895a53.882,53.882,0,0,0,2.477-16.947c-.958-17.381-8.569-45.221-9.894-47.586-4.27-7.574-37.932-11.219-37.932-11.219s-28.443,12.071-24.3,20.474c5.253,10.653,7.868,19.788,8.713,28.114C1861.709,795.858,1829.87,816.947,1841.532,886.093Z" transform="translate(-1825.25 -632.835)" fill="#f1f2f2"/>
        <path id="Path_1064" data-name="Path 1064" d="M1666.01,273.4l5.461,10.143,10.264,19.057,1.015-18.026.549-9.779Z" transform="translate(-1617.77 -196.354)" fill="#fcae88"/>
        <path id="Path_1065" data-name="Path 1065" d="M1682.084,234.25l-.441,10.7-.146,3.543-17.266-1.749,2.656-9.747.335-1.226Z" transform="translate(-1615.988 -169.701)" fill="#fcae88"/>
        <path id="Path_1066" data-name="Path 1066" d="M1680.622,234.25l-.738,16.9-15.654-9.776,1.529-5.6Z" transform="translate(-1614.527 -169.701)" fill="#f58d86" opacity="0.6"/>
        <path id="Path_1067" data-name="Path 1067" d="M1868.21,497.823a29.343,29.343,0,1,0,29.343-29.343,29.343,29.343,0,0,0-29.343,29.343Z" transform="translate(-1838.779 -468.48)" fill="#8e2e15"/>
        <path id="Path_1068" data-name="Path 1068" d="M1878.347,523.381a7.3,7.3,0,0,0,.207,1.6,6,6,0,0,0,3.092,4.184,3.168,3.168,0,0,0,1.526.274c2.308,13.867,9.741,23.937,23.541,23.854a22.112,22.112,0,0,0,10.957-2.735c9.112-5.17,13-17.142,12.907-31.041a46.064,46.064,0,0,0-.549-6.846c-2.368-15.262-12.128-26.688-23.764-26.608-12.97.08-23.445,14.439-23.854,32.35a2.908,2.908,0,0,0-1.276.064,2.128,2.128,0,0,0-.425.156C1879.2,519.293,1878.293,521.2,1878.347,523.381Z" transform="translate(-1845.695 -480.448)" fill="#fcae88"/>
        <path id="Path_1069" data-name="Path 1069" d="M1892.9,565.078c4.008-2.451,6.341-2.422,10.286.14.019-1.146.022-1.72.038-2.872-3.944-2.553-6.275-2.592-10.289-.137C1892.922,563.361,1892.91,563.933,1892.9,565.078Z" transform="translate(-1822.988 -531.063)" fill="#8e2e15"/>
        <path id="Path_1070" data-name="Path 1070" d="M1950.09,564.314c4.012-2.458,6.348-2.426,10.289.137,0-1.143.025-1.717.042-2.872-3.945-2.553-6.281-2.588-10.293-.137C1950.115,562.6,1950.109,563.168,1950.09,564.314Z" transform="translate(-1898.437 -530.541)" fill="#8e2e15"/>
        <path id="Path_1071" data-name="Path 1071" d="M1911.33,622c2.295,13.87,9.731,23.937,23.532,23.854a22.081,22.081,0,0,0,10.96-2.732c.539-.6,1.816-.957,2.372-1.6C1947.829,641.746,1922.274,657,1911.33,622Z" transform="translate(-1873.838 -573.003)" fill="#f58d86" opacity="0.6"/>
        <path id="Path_1072" data-name="Path 1072" d="M1946.9,482.291s-22.293,23.863-38.618,26.516C1907.429,505.544,1913.943,450.691,1946.9,482.291Z" transform="translate(-1871.548 -471.229)" fill="#8e2e15"/>
        <path id="Path_1073" data-name="Path 1073" d="M1875.91,502.725s6.405,21.313,12.07,28.165C1887.913,528.609,1886.694,489.052,1875.91,502.725Z" transform="translate(-1802.321 -489.843)" fill="#8e2e15"/>
        <path id="Path_1074" data-name="Path 1074" d="M1903.169,589.207c0,1.618.747,2.936,1.7,2.946s1.739-1.3,1.755-2.911-.747-2.933-1.7-2.943S1903.188,587.593,1903.169,589.207Z" transform="translate(-1829.666 -548.697)" fill="#501a0c"/>
        <path id="Path_1075" data-name="Path 1075" d="M1962.559,588.637c0,1.618.747,2.933,1.7,2.946s1.743-1.3,1.759-2.911-.747-2.936-1.7-2.943S1962.575,587.022,1962.559,588.637Z" transform="translate(-1908.01 -548.309)" fill="#501a0c"/>
        <path id="Path_1076" data-name="Path 1076" d="M1933.16,589.42s-1.43,7.037-2.438,12.029c11.129,3.306,2.617-11.707,2.442-12.019Z" transform="translate(-1868.274 -550.821)" fill="#fcae88"/>
        <path id="Path_1077" data-name="Path 1077" d="M1930.7,601.469c11.129,3.306,2.617-11.707,2.442-12.019C1933.268,589.74,1938.668,602.67,1930.7,601.469Z" transform="translate(-1868.247 -550.841)" fill="#f58d86" opacity="0.6"/>
        <path id="Path_1078" data-name="Path 1078" d="M0,3.722s5.745-8.689,15.868.485A58.188,58.188,0,0,0,0,3.722Z" transform="translate(55.987 56.477)" fill="#f1f2f2"/>
        <rect id="Rectangle_4658" data-name="Rectangle 4658" width="20.234" height="8.802" transform="translate(38.124 113.965)" fill="#fff"/>
        <path id="Path_1079" data-name="Path 1079" d="M1940.67,741.66l10.261,19.057,1.015-18.026C1949.606,744.491,1945.907,745.442,1940.67,741.66Z" transform="translate(-1886.955 -654.472)" fill="#8a86fb"/>
        <path id="Path_1080" data-name="Path 1080" d="M1870.723,849.923l6.52-2.943c5.767-4.752,10.992-23.573,11.209-24.371l-.785-.38c-.055.191-5.3,19.108-10.785,23.7L1870.5,848.8Z" transform="translate(-1801.066 -709.328)" fill="#5e5f60"/>
        <path id="Path_1081" data-name="Path 1081" d="M1922.333,905.357a.521.521,0,0,0,.278-.048l2.081-.9a.956.956,0,0,0,.485-.546,1.535,1.535,0,0,0,.083-.849c-.105-.568-.552-.9-.957-.728l-2.078.9a.958.958,0,0,0-.485.546,1.532,1.532,0,0,0-.086.846A.858.858,0,0,0,1922.333,905.357Z" transform="translate(-1854.218 -763.804)" fill="#bcbec0"/>
        <path id="Path_1082" data-name="Path 1082" d="M1904.963,847.726l.383-1.085-5.892-3.772c-4.746-5.349-7.155-24.831-7.178-25.028l-.836.262c.1.82,2.5,20.206,7.506,25.756l.08.07Z" transform="translate(-1824.644 -706.339)" fill="#5e5f60"/>
        <path id="Path_1083" data-name="Path 1083" d="M1888.207,907.919a.852.852,0,0,0,.792-.667,1.567,1.567,0,0,0,.041-.849.99.99,0,0,0-.4-.613l-1.915-1.194c-.376-.236-.871.032-1.059.578a1.571,1.571,0,0,0-.042.849.989.989,0,0,0,.4.613l1.915,1.193a.549.549,0,0,0,.268.09Z" transform="translate(-1806.508 -765.347)" fill="#bcbec0"/>
        <path id="Path_1084" data-name="Path 1084" d="M1869.454,788.6c.466.035.881-.466.932-1.12.319-4.222,1.988-7.564,4.666-9.406a8.231,8.231,0,0,1,10.446.823c1.637,1.567,3.511,4.558,3.083,9.894a1.1,1.1,0,0,0,.75,1.276h0c.463.032.877-.469.929-1.12.4-5.065-.941-9.339-3.763-12.039a9.574,9.574,0,0,0-12.128-.957c-3.255,2.234-5.269,6.287-5.668,11.4-.048.657.287,1.219.75,1.258Z" transform="translate(-1802.366 -676.644)" fill="#231f20"/>
        <path id="Path_1085" data-name="Path 1085" d="M1902.909,738.755c0,.613-.029.98-.032,1.005l1.87.118c0-.026.022-.38.029-.98.035-2.69-.23-10.328-3.929-15.54-.865-.319-3.108-.878-4.535-1.219C1902.491,725.9,1902.932,735.6,1902.909,738.755Z" transform="translate(-1825.634 -641.182)" fill="#231f20"/>
        <path id="Path_1087" data-name="Path 1087" d="M1997.439,883a4.516,4.516,0,1,0,3.54-5.311A4.516,4.516,0,0,0,1997.439,883Z" transform="translate(-1959.484 -747.027)" fill="#8d8f90"/>
        <path id="Path_1088" data-name="Path 1088" d="M1998.928,883.905a4.043,4.043,0,1,0,.6-3.04,4.043,4.043,0,0,0-.6,3.04Z" transform="translate(-1960.514 -748.021)" fill="#bcbec0"/>
        <path id="Path_1089" data-name="Path 1089" d="M2002.765,886.3a2.809,2.809,0,1,0,2.2-3.306A2.808,2.808,0,0,0,2002.765,886.3Z" transform="translate(-1963.136 -750.659)" fill="#58595b"/>
        <path id="Path_1090" data-name="Path 1090" d="M2018.023,989.765l14.767.08,10.079.064c-8.327-20.164-12.738-84.053-8.47-95.872,4.915-13.618,0-31.887,0-31.887C2038.2,899.529,2006.36,920.619,2018.023,989.765Z" transform="translate(-2001.742 -736.507)" fill="#d4dbdb"/>
        <path id="Path_1086" data-name="Path 1086" d="M2011.738,768.608c.029.16.061.319.09.479l.249,1.277.134.68,1.838-.364-.163-.83c-.08-.415-.16-.83-.239-1.238l-.086-.469c-5.917-31.488-2.821-45.263,1.13-51.282-.824.386-2.336,1.107-2.936,1.462C2008.336,725.71,2006.393,740.184,2011.738,768.608Z" transform="translate(-1971.323 -637.588)" fill="#231f20"/>
      </g>
      <path id="Path_1211" data-name="Path 1211" d="M1872.58,1688.213s10.532-5.269,10.74-15.533h10.947a63.285,63.285,0,0,0-.172,6.594c.195,1.168,1.277,5.473,1.277,5.473S1876.544,1701.42,1872.58,1688.213Z" transform="translate(-862.422 -1184.809)" fill="#fcae88"/>
      <path id="Path_1212" data-name="Path 1212" d="M1853.371,1710.179l2.234,3.137s11.1-5.627,20.155-7.615c2.595-.568,0,12.54,0,12.54h-6.712v-3.134l-8.959,3.134h-17.021S1841.568,1708.836,1853.371,1710.179Z" transform="translate(-842.287 -1207.279)" fill="#414042"/>
      <path id="Path_1213" data-name="Path 1213" d="M2019.79,1689.029l.543-15.859h9.762s4.219,12.926,2.792,15.546C2031.321,1691.592,2019.79,1689.029,2019.79,1689.029Z" transform="translate(-970.119 -1185.463)" fill="#fcae88"/>
      <path id="Path_1214" data-name="Path 1214" d="M2028.3,1705.57v5.205a13.458,13.458,0,0,0-13.085,0v-5.205s-4.87,10.915,0,12.594H2028.3C2033.168,1716.485,2028.3,1705.57,2028.3,1705.57Z" transform="translate(-965.529 -1207.521)" fill="#414042"/>
      <rect id="Rectangle_4675" data-name="Rectangle 4675" width="5.764" height="5.486" transform="translate(1066.252 219.271)" fill="#d1d3d4"/>
      <rect id="Rectangle_4676" data-name="Rectangle 4676" width="9.383" height="0.801" transform="translate(1055.473 219.67)" fill="#d1d3d4"/>
      <rect id="Rectangle_4677" data-name="Rectangle 4677" width="9.383" height="0.798" transform="translate(1055.473 221.617)" fill="#d1d3d4"/>
      <rect id="Rectangle_4678" data-name="Rectangle 4678" width="9.383" height="0.801" transform="translate(1055.473 223.557)" fill="#d1d3d4"/>
      <path id="Path_1164" data-name="Path 1164" d="M971.666,568.485c-9.472,4.4-23.085-21.288-25.411-23.164-7.752,7.622-8.617,26.742-21.814,20.959-33.661-14.758-5.247-46.316-6.7-65.951-.6-8.154.574-15,3.051-20.426.172-.367.345-.731.52-1.085a26.952,26.952,0,0,1,3.664-5.445c.109-.131.23-.262.348-.393a23.415,23.415,0,0,1,5.3-4.347c.236-.14.475-.284.718-.418a24.643,24.643,0,0,1,10.149-2.955l1.864-.089a25.02,25.02,0,0,1,8.79,1.347c.268.093.527.188.792.29a23.493,23.493,0,0,1,7.251,4.5c.131.118.252.236.383.358a25.043,25.043,0,0,1,3.22,3.686c.23.319.456.638.673.983a35.453,35.453,0,0,1,4.941,12.5v.048a.55.55,0,0,0,.016.077,48.009,48.009,0,0,1,.807,6.23c.06.852.1,1.727.118,2.607a21.557,21.557,0,0,0,.456,3.91C974.5,519.852,1022.861,544.7,971.666,568.485Z" transform="translate(89.738 -362.678)" fill="#844b00"/>
      <path id="Path_1165" data-name="Path 1165" d="M1061.824,1276.869l1.277,12.093,2.84,26.809,6.828,75.164-.607,11.665,8.139,1.2,2.793-1.2s4.544-53.94,3.688-89.29c-.242-9.894-1.012-18.885-2.588-25.7h0c-1.171-5.078-2.793-8.936-4.976-11.088C1076.113,1273.485,1061.824,1276.869,1061.824,1276.869Z" transform="translate(-51.248 -914.225)" fill="#fcae88"/>
      <path id="Path_1169" data-name="Path 1169" d="M973.9,1276.864,975,1287.182l2.684,25.322,7.948,84.985v4.708l5.937.319,1.882-.319,1.806.319s4.841-56.864,3.5-92.523c-.351-9.437-1.242-17.889-2.92-24.16-1.13-4.213-2.617-7.44-4.539-9.326C988.19,1273.481,973.9,1276.864,973.9,1276.864Z" transform="translate(64.715 -914.221)" fill="#fcae88"/>
      <path id="Path_1173" data-name="Path 1173" d="M995.508,1308.47,974.67,1309.8l2.684,25.322,21.064-2.493C998.077,1323.193,997.186,1314.741,995.508,1308.47Z" transform="translate(65.041 -936.84)" fill="#f58d86" opacity="0.6"/>
      <path id="Path_1174" data-name="Path 1174" d="M1062.16,1315.306l2.841,26.809,20.834-2.461c-.243-9.894-1.012-18.885-2.589-25.7h0Z" transform="translate(-50.299 -940.57)" fill="#f58d86" opacity="0.6"/>
      <path id="Path_1175" data-name="Path 1175" d="M936.147,1159.109h65.108c2.7-9.8,7.584-48.389,6.464-62.078-1.972-24.1-8.078-50.455-12.074-65.833-2.119-8.154-3.645-13.219-3.645-13.219H946.649s-.91,3.029-2.3,8.164c-.463,1.711-.983,3.654-1.538,5.8-.989,3.855-2.106,8.355-3.249,13.309a338.042,338.042,0,0,0-7.668,61.623C931.582,1116.813,934.111,1151.724,936.147,1159.109Z" transform="translate(69.555 -739.063)" fill="#4e4e4e"/>
      <path id="Path_1176" data-name="Path 1176" d="M932.42,1135.075l75.6-9.842c-1.972-24.1-8.078-50.455-12.074-65.832l-52.836.744c-.989,3.855-2.107,8.355-3.249,13.309C935.749,1091.213,933.023,1114.69,932.42,1135.075Z" transform="translate(69.24 -767.262)" fill="#3b3b3b"/>
      <path id="Path_1177" data-name="Path 1177" d="M922.218,886.37H945.11l5.614-10.462,2.448,10.42,32.781-.175h16.214c11.543-84.807-37.961-97.314-9.107-155.822,4.149-8.4-24.3-20.471-24.3-20.471s-33.668,3.651-37.938,11.215c-1.334,2.365-8.936,30.208-9.894,47.589a53.6,53.6,0,0,0,2.477,16.944C930.639,803.417,922.218,886.37,922.218,886.37Z" transform="translate(76.676 -529.279)" fill="#f1f2f2"/>
      <path id="Path_1178" data-name="Path 1178" d="M775.459,273.4,770,283.543,759.737,302.6l-1.015-18.026-.552-9.779Z" transform="translate(269.973 -92.813)" fill="#fcae88"/>
      <path id="Path_1179" data-name="Path 1179" d="M758.17,234.25l.44,10.7.147,3.543,17.266-1.749L773.368,237l-.335-1.226Z" transform="translate(269.41 -66.158)" fill="#fcae88"/>
      <path id="Path_1180" data-name="Path 1180" d="M762.76,234.25l.737,16.9,15.651-9.776-1.526-5.6Z" transform="translate(264.82 -66.158)" fill="#f58d86" opacity="0.6"/>
      <path id="Path_1181" data-name="Path 1181" d="M1034.545,523.381a7.318,7.318,0,0,1-.208,1.6,6.014,6.014,0,0,1-3.093,4.184,3.193,3.193,0,0,1-1.529.274c-2.3,13.867-9.74,23.937-23.538,23.854a22.125,22.125,0,0,1-10.96-2.735c-9.112-5.17-13-17.142-12.907-31.041a46.064,46.064,0,0,1,.549-6.846c2.371-15.262,12.128-26.688,23.764-26.608,12.97.08,23.445,14.439,23.857,32.35a2.914,2.914,0,0,1,1.277.064,2.2,2.2,0,0,1,.424.156C1033.689,519.293,1034.608,521.2,1034.545,523.381Z" transform="translate(26.473 -376.906)" fill="#fcae88"/>
      <path id="Path_1182" data-name="Path 1182" d="M1109.325,564.522c-4.009-2.16-6.345-2.134-10.29.124,0-1.01-.022-1.516-.035-2.531,3.942-2.25,6.275-2.284,10.286-.121C1109.286,563.009,1109.3,563.513,1109.325,564.522Z" transform="translate(-85.549 -426.691)" fill="#844b00"/>
      <path id="Path_1183" data-name="Path 1183" d="M1052.168,563.758c-4.012-2.165-6.348-2.137-10.29.121,0-1.007-.022-1.513-.038-2.531,3.945-2.25,6.278-2.281,10.29-.121C1052.142,562.245,1052.149,562.748,1052.168,563.758Z" transform="translate(-10.148 -426.168)" fill="#844b00"/>
      <path id="Path_1184" data-name="Path 1184" d="M1034.326,622c-2.3,13.87-9.734,23.937-23.534,23.854a22.09,22.09,0,0,1-10.96-2.732c-.539-.6-1.813-.957-2.371-1.6C997.828,641.746,1023.379,657,1034.326,622Z" transform="translate(21.857 -469.461)" fill="#f58d86" opacity="0.6"/>
      <path id="Path_1185" data-name="Path 1185" d="M994.867,482.291s22.3,23.863,38.618,26.516C1034.34,505.544,1027.826,450.691,994.867,482.291Z" transform="translate(23.455 -367.688)" fill="#844b00"/>
      <path id="Path_1186" data-name="Path 1186" d="M1122.637,502.725s-6.405,21.313-12.067,28.165C1110.637,528.609,1111.856,489.052,1122.637,502.725Z" transform="translate(-102.553 -386.301)" fill="#844b00"/>
      <path id="Path_1187" data-name="Path 1187" d="M1113.76,589.207c0,1.618-.747,2.936-1.7,2.946s-1.743-1.3-1.759-2.911.747-2.933,1.7-2.943S1113.744,587.593,1113.76,589.207Z" transform="translate(-93.586 -445.154)" fill="#633800"/>
      <path id="Path_1188" data-name="Path 1188" d="M1054.357,588.637c0,1.618-.747,2.933-1.7,2.946s-1.743-1.3-1.755-2.911.747-2.936,1.7-2.943S1054.325,587.022,1054.357,588.637Z" transform="translate(-15.225 -444.768)" fill="#633800"/>
      <path id="Path_1189" data-name="Path 1189" d="M1078.952,589.42l2.438,12.029c-11.129,3.306-2.62-11.707-2.445-12.019Z" transform="translate(-50.168 -447.279)" fill="#fcae88"/>
      <path id="Path_1190" data-name="Path 1190" d="M1081.39,601.469c-11.129,3.306-2.62-11.707-2.445-12.019C1078.824,589.74,1073.424,602.67,1081.39,601.469Z" transform="translate(-50.168 -447.299)" fill="#f58d86" opacity="0.6"/>
      <path id="Path_1191" data-name="Path 1191" d="M15.868,3.722S10.123-4.967,0,4.207A58.187,58.187,0,0,1,15.868,3.722Z" transform="translate(1021.818 160.02)" fill="#f1f2f2"/>
      <rect id="Rectangle_4673" data-name="Rectangle 4673" width="20.238" height="8.802" transform="translate(1035.313 217.506)" fill="#fff"/>
      <path id="Path_1192" data-name="Path 1192" d="M1059.526,741.66l-10.261,19.057-1.015-18.026C1050.589,744.491,1054.272,745.442,1059.526,741.66Z" transform="translate(-19.551 -550.93)" fill="#d79600"/>
      <path id="Path_1210" data-name="Path 1210" d="M908.1,743.635c17.234,7.523,31.915,73.087,28.015,77.1-8.936,9.166-55.281,5.745-55.281,5.745l-.811-11.489,30.984-8.056S889.522,735.538,908.1,743.635Z" transform="translate(156.916 -551.84)" fill="#f9fafa"/>
      <rect id="Rectangle_4679" data-name="Rectangle 4679" width="5.445" height="5.486" transform="translate(1048.342 219.271)" fill="#d1d3d4"/>
      <rect id="Rectangle_4680" data-name="Rectangle 4680" width="10.36" height="0.801" transform="translate(1036.586 219.67)" fill="#d1d3d4"/>
      <rect id="Rectangle_4681" data-name="Rectangle 4681" width="10.36" height="0.798" transform="translate(1036.586 221.617)" fill="#d1d3d4"/>
      <rect id="Rectangle_4682" data-name="Rectangle 4682" width="10.36" height="0.801" transform="translate(1036.586 223.557)" fill="#d1d3d4"/>
      <path id="Path_1205" data-name="Path 1205" d="M1013.888,619.6,853.862,634.163,833.12,422.98l160.016-14.56Z" transform="translate(19.852 -203.037)" fill="#0f9bd9"/>
      <g id="Group_6015" data-name="Group 6015" transform="translate(780.795 193.158)">
        <path id="Path_1281" data-name="Path 1281" d="M908.673,743.635c-17.234,7.523-31.915,73.088-28.015,77.1,8.936,9.166,70.019,6.423,70.019,6.423v-9.91l-44.911-10.314S927.251,735.537,908.673,743.635Z" transform="translate(-880.024 -742.994)" fill="#f1f2f2"/>
      </g>
      <path id="Path_1203" data-name="Path 1203" d="M1108.613,944.867s-2.26-7.3-3.511-6.639c-1.714.9-1.06,3.31-1.06,3.31l2.113,4.171Z" transform="translate(-86.404 -684.734)" fill="#fcae88"/>
      <path id="Path_1206" data-name="Path 1206" d="M1077.287,956.155l-7.826,1.937s-8.518-8.738-9.185-9.055c-2.26-1.066-9.948.957-9.948.957l-6.5,7.928a8.051,8.051,0,0,0,1.947-.1c1.484-.584,4.9-4.1,4.9-4.1a30.907,30.907,0,0,0-1.892,3.779,49.329,49.329,0,0,0-.833,6.252,4.75,4.75,0,0,0,1.136-.527c1.628-1.631,3.865-8.365,3.865-8.365s9.728,9.144,13.867,10.462c2.339.744,9.811-.294,9.811-.294Z" transform="translate(-35.902 -691.91)" fill="#fcae88"/>
      <rect id="Rectangle_4674" data-name="Rectangle 4674" width="7.658" height="89.979" transform="translate(887.24 220.949) rotate(-95.92)" fill="#bcbec0"/>
      <path id="Path_1284" data-name="Path 1284" d="M-19-14.19h-7.315v-8.36h-5.17v8.36h-14.8L-27.417-38.5h-5.94l-19.69,25.19v3.85h21.4V0h5.335V-9.46H-19ZM.028.44C8.993.44,15.7-6.71,15.7-19.25S8.993-38.94.028-38.94c-9.02,0-15.73,7.15-15.73,19.69S-8.992.44.028.44Zm0-4.895c-6.05,0-10.23-4.95-10.23-14.8s4.18-14.8,10.23-14.8c6,0,10.175,4.95,10.175,14.8S6.023-4.455.028-4.455Zm54.45-9.735H47.163v-8.36h-5.17v8.36H27.2L46.063-38.5h-5.94L20.432-13.31v3.85h21.4V0h5.335V-9.46h7.315Z" transform="matrix(0.995, -0.105, 0.105, 0.995, 942.439, 329.027)" fill="#fff"/>
      <path id="Path_1207" data-name="Path 1207" d="M1115.586,968.79l-2.2,3.393-2.1,4.283a4.944,4.944,0,0,0,1.35-.246c1.494-.929,4.2-5.643,4.2-5.643Z" transform="translate(-96.988 -705.57)" fill="#fcae88"/>
      <path id="Path_1208" data-name="Path 1208" d="M1101.656,972.66l-.788.791h0l-4.618,4.631a4.58,4.58,0,0,0,1.031-.045c1.149-.405,3.7-2.6,4.385-3.192l.613.539,1.612,1.982.427-1.468Z" transform="translate(-79.66 -708.205)" fill="#fcae88"/>
      <path id="Path_1282" data-name="Path 1282" d="M1282.248,961.981s-1.743-7.44-.319-7.507c1.915-.1,2.585,2.32,2.585,2.32l.287,4.666Z" transform="translate(-426.973 -694.805)" fill="#fcae88"/>
      <path id="Path_1283" data-name="Path 1283" d="M1249.772,968.309a4.121,4.121,0,0,0-1.194,1.7,5.582,5.582,0,0,0,0,2.608c.048.705-.791,2.055-.638,2.748.105.507,1.143,1.158,1.251,1.666.144.692-.98,2.125-.638,2.748.871,1.615,5.933,2.531,5.933,2.531s6.772,1.318,8.078-.224c.22-.255-.182-1.337-.182-1.337s3.118.3,3.686-.437a1.3,1.3,0,0,0-.163-1.2c-.638-.638-3.536-.437-3.536-.437s2.872-.057,3.37-.766a1.4,1.4,0,0,0-.166-1.206c-.868-1-5.107-1.446-5.107-1.446s1.956.077,2.406-.319c.351-.319.67-.715.351-1.063-.849-.922-7.491-2.576-7.491-2.576l-.447-5.03Z" transform="translate(-397.648 -702.838)" fill="#fcae88"/>
    </g>
  </g>
</svg>
