<?xml version="1.0" standalone="no"?>
<!DOCTYPE svg PUBLIC "-//W3C//DTD SVG 20010904//EN"
 "http://www.w3.org/TR/2001/REC-SVG-20010904/DTD/svg10.dtd">
<svg version="1.0" xmlns="http://www.w3.org/2000/svg"
 width="700.000000pt" height="700.000000pt" viewBox="0 0 700.000000 700.000000"
 preserveAspectRatio="xMidYMid meet">
<metadata>
Created by potrace 1.11, written by Peter Selinger 2001-2013
</metadata>
<g transform="translate(0.000000,700.000000) scale(0.100000,-0.100000)"
fill="#000000" stroke="none">
<path d="M1893 6589 c-273 -69 -447 -319 -488 -699 -7 -64 -7 -277 0 -335 2
-22 7 -64 11 -94 28 -246 142 -629 257 -866 14 -27 24 -51 23 -52 0 -1 -30 -4
-66 -7 -36 -4 -76 -9 -90 -11 -14 -2 -45 -7 -70 -10 -502 -68 -1002 -280
-1244 -530 -107 -110 -172 -216 -204 -332 -104 -373 174 -740 740 -977 161
-68 396 -137 558 -166 30 -5 69 -12 85 -15 17 -3 89 -13 161 -22 l131 -16 -13
-26 c-114 -237 -228 -602 -258 -821 -24 -183 -26 -197 -26 -320 -2 -255 42
-450 136 -604 189 -309 524 -378 944 -194 43 19 214 114 235 130 6 4 48 36 95
69 213 155 479 428 639 657 24 34 47 62 51 62 3 0 21 -21 40 -47 120 -172 347
-422 500 -554 249 -213 491 -345 726 -398 126 -29 282 -24 381 11 255 91 418
341 448 693 6 68 6 285 0 330 -2 17 -7 57 -11 90 -3 33 -8 69 -10 80 -51 273
-110 472 -216 718 -27 65 -48 120 -46 123 2 2 24 6 49 9 97 11 145 17 174 21
466 70 889 235 1150 448 384 315 419 721 89 1050 -116 116 -248 206 -434 294
-222 105 -519 195 -750 227 -25 3 -52 8 -60 10 -18 5 -74 12 -162 21 l-67 6
18 37 c79 155 206 533 236 701 36 207 39 234 39 445 0 190 -3 233 -21 312
-129 551 -566 721 -1125 436 -300 -153 -637 -462 -899 -822 -24 -33 -47 -59
-50 -58 -4 1 -36 41 -71 88 -219 295 -466 534 -725 703 -292 191 -580 264
-810 205z"/>
</g>
</svg>
